<svg width="220" height="160" viewBox="0 0 220 160" fill="none" xmlns="http://www.w3.org/2000/svg">
<path d="M57.6139 110.887C57.5036 110.956 57.3933 111.022 57.2831 111.086C48.434 116.411 38.9163 116.02 31.5873 114.286C24.3617 112.578 19.2647 109.563 19.0476 109.431C34.1718 113.13 46.3946 105.484 46.3946 105.484L57.6139 110.887Z" fill="#E5A363"/>
<path d="M41.0249 116.857C37.8884 116.857 34.6395 116.468 31.3097 115.683C23.7657 113.906 18.5242 110.777 18.3051 110.645C18.0131 110.469 17.7938 110.195 17.687 109.871C17.5802 109.548 17.5929 109.197 17.7229 108.882C17.8529 108.567 18.0915 108.309 18.3954 108.155C18.6993 108.001 19.0484 107.961 19.3792 108.042C33.7566 111.566 45.5223 104.351 45.6396 104.278C45.7981 104.179 45.9746 104.112 46.159 104.081C46.3434 104.05 46.5321 104.055 46.7143 104.097C46.8965 104.139 47.0687 104.217 47.2209 104.325C47.3732 104.434 47.5026 104.571 47.6018 104.73C47.701 104.888 47.768 105.065 47.7989 105.249C47.8299 105.434 47.8242 105.622 47.7822 105.804C47.7403 105.987 47.6628 106.159 47.5543 106.311C47.4458 106.463 47.3084 106.593 47.1499 106.692C46.743 106.947 39.0693 111.647 28.3113 111.866C35.7401 114.242 46.8547 115.873 56.8644 109.677C57.0234 109.579 57.2003 109.512 57.3848 109.482C57.5694 109.452 57.7581 109.459 57.9401 109.502C58.1221 109.545 58.2939 109.623 58.4457 109.732C58.5974 109.842 58.7262 109.98 58.8246 110.139C58.9229 110.298 58.989 110.475 59.0191 110.659C59.0491 110.844 59.0425 111.032 58.9997 111.214C58.9568 111.396 58.8785 111.568 58.7692 111.72C58.66 111.872 58.5219 112 58.3629 112.099C53.2589 115.257 47.3774 116.857 41.0249 116.857Z" fill="#00046A"/>
<path d="M194.612 148.834C194.011 150.896 193.237 152.904 192.298 154.836C185.852 151.501 181.353 146.759 183.759 137.025V137.021C184.436 134.276 185.663 131.137 187.546 127.521C187.547 127.524 199.101 133.14 194.612 148.834Z" fill="#62CE3E"/>
<g opacity="0.7">
<path d="M193.278 152.639C192.986 153.354 192.66 154.088 192.301 154.839C184.039 150.564 178.975 143.975 187.549 127.524C187.911 127.711 188.261 127.92 188.596 128.152C181.937 142.259 186.091 148.548 193.278 152.639Z" fill="#F1F2F2"/>
</g>
<path d="M196.143 110.417C196.143 110.417 192.32 122.282 184.278 131.827C184.278 131.827 184.278 131.827 184.278 131.834C181.747 134.835 178.8 137.607 175.422 139.711L172.219 141.491C178.163 133.899 183.256 125.904 184.093 115.891C184.136 115.422 184.163 114.948 184.185 114.468L196.143 110.417Z" fill="#E5A363"/>
<path d="M168.655 57.9631C174.409 47.3441 187.114 51.1387 181.795 55.6194C193.72 55.3214 193.096 73.0607 183.069 68.1557C183.069 68.1557 183.487 75.9976 176.99 73.2387C170.492 70.4798 164.621 63.1836 164.621 63.1836L168.655 57.9631Z" fill="#B5CFDD"/>
<g opacity="0.3">
<path d="M183.069 68.1556C183.069 68.1556 183.488 75.9975 176.99 73.2386C170.491 70.4797 164.621 63.1835 164.621 63.1835L165.244 62.3788C167.554 64.6317 170.832 67.3837 174.289 68.85C180.784 71.6082 180.368 63.767 180.368 63.767C186.141 66.5894 188.796 61.9091 187.732 57.4856C193.029 61.8449 190.964 72.0179 183.069 68.1556Z" fill="#00046A"/>
</g>
<path d="M179.478 75.2543C178.557 75.2543 177.542 75.0193 176.433 74.5494C169.686 71.6879 163.761 64.3854 163.512 64.0762C163.311 63.8271 163.201 63.5176 163.197 63.1978C163.194 62.878 163.299 62.5664 163.494 62.3133L167.459 57.1814C170.794 51.1205 176.203 49.3813 179.839 49.7365C182.181 49.9662 183.87 51.0389 184.357 52.6057C184.537 53.1939 184.537 53.8224 184.357 54.4106C187.584 55.0499 190.113 57.0676 191.356 60.1022C192.695 63.3748 192.164 67.0327 190.064 68.998C189.157 69.8474 187.314 70.9683 184.368 70.1727C184.146 71.6062 183.563 73.4188 182.073 74.4636C181.321 74.9905 180.453 75.2543 179.478 75.2543ZM166.455 63.1382C168.179 65.0924 172.736 69.8858 177.546 71.9322C178.449 72.3153 179.684 72.6622 180.437 72.1366C181.54 71.3689 181.683 69.0001 181.646 68.2282C181.634 67.9809 181.686 67.7346 181.798 67.5137C181.91 67.2929 182.078 67.105 182.285 66.9686C182.491 66.8323 182.73 66.7522 182.977 66.7363C183.224 66.7203 183.471 66.7691 183.694 66.8777C185.033 67.5324 186.888 68.0712 188.119 66.9196C189.336 65.7813 189.595 63.3148 188.722 61.1819C188.196 59.8991 186.472 56.9301 181.83 57.0439C181.535 57.0513 181.245 56.9669 181.001 56.8023C180.756 56.6378 180.568 56.4012 180.463 56.1253C180.359 55.8495 180.342 55.5479 180.417 55.2623C180.491 54.9768 180.652 54.7213 180.878 54.5313C181.51 53.9988 181.68 53.5863 181.638 53.4516C181.568 53.2325 180.952 52.7076 179.561 52.5715C176.77 52.2993 172.572 53.7238 169.906 58.6435C169.87 58.7107 169.828 58.7749 169.781 58.8355L166.455 63.1382Z" fill="#00046A"/>
<path d="M174.409 65.8497L173.302 68.416L168.892 78.6386C168.892 78.6386 158.452 115.507 158.324 118.949C158.3 119.629 158.249 120.59 158.107 121.686C157.951 122.885 157.676 124.242 157.189 125.57C157.139 125.709 157.085 125.844 157.029 125.982C155.744 129.168 153.152 132.033 147.867 131.823C147.457 131.806 147.029 131.77 146.586 131.716C144.887 131.507 143.538 130.958 142.464 130.181C136.623 125.956 138.993 114.975 138.993 114.975L71.1252 104.718L60.6786 95.5753L122.77 52.5827C122.77 52.5827 149.829 42.7621 165.278 54.516C167.625 56.3013 170.194 57.8661 172.216 60.2216L174.409 65.8497Z" fill="#B5CFDD"/>
<g opacity="0.7">
<path d="M172.701 61.4731C170.811 59.5293 168.558 58.123 166.472 56.5359C151.024 44.7827 123.968 54.6033 123.968 54.6033L62.4932 97.1667L60.6786 95.5754L122.773 52.5772C122.773 52.5772 149.832 42.7566 165.277 54.514C167.623 56.2972 170.192 57.8641 172.214 60.2196L172.701 61.4731Z" fill="#F1F2F2"/>
</g>
<path d="M154.373 86.1288C154.373 86.1288 145.123 80.671 130.468 86.1288C115.813 91.5866 96.5105 91.3794 97.9154 105.486C99.3203 119.593 132.909 118.025 135.115 117.407C137.321 116.79 146.216 114.988 150.384 113.017C154.552 111.046 160.605 109.284 160.96 107.585" fill="#F8FDFF"/>
<path d="M148.412 133.258C147.743 133.256 147.075 133.214 146.412 133.13C143.43 132.761 141.108 131.433 139.507 129.181C136.584 125.064 136.972 118.965 137.351 116.165L70.9138 106.125C70.6814 106.09 70.4612 105.998 70.2731 105.857L58.0754 96.7143C57.8941 96.5782 57.748 96.4008 57.649 96.1969C57.5501 95.9929 57.5013 95.7683 57.5066 95.5417C57.5119 95.3151 57.5713 95.0931 57.6797 94.894C57.788 94.6949 57.9424 94.5246 58.1298 94.3972L120.595 51.9678C120.661 51.923 120.731 51.8838 120.804 51.8506C121.124 51.7047 128.751 48.2653 139.033 47.4019C152.759 46.2518 164.585 50.3388 173.235 59.2249C173.499 59.4955 173.644 59.8597 173.639 60.2373C173.634 60.6149 173.479 60.975 173.208 61.2384C172.938 61.5018 172.573 61.6469 172.196 61.6418C171.818 61.6367 171.458 61.4818 171.195 61.2112C163.062 52.857 152.351 49.1635 139.359 50.2321C130.175 50.9879 123.023 53.989 122.09 54.3959L61.3766 95.6311L71.6913 103.363L139.203 113.565C139.395 113.594 139.579 113.662 139.744 113.765C139.909 113.868 140.051 114.004 140.162 114.164C140.272 114.324 140.349 114.505 140.387 114.696C140.425 114.886 140.423 115.083 140.382 115.273C140.366 115.35 138.735 123.19 141.83 127.538C142.962 129.129 144.574 130.034 146.759 130.304C149.58 130.653 151.829 130.133 153.443 128.759C155.558 126.958 156.723 123.639 156.898 118.895C157.028 115.385 166.446 82.0438 167.519 78.2498C167.537 78.1897 167.558 78.1308 167.582 78.0732L173.096 65.285C173.246 64.9383 173.527 64.6653 173.878 64.526C174.229 64.3866 174.621 64.3924 174.967 64.5421C175.314 64.6917 175.587 64.973 175.726 65.324C175.866 65.675 175.86 66.0669 175.71 66.4136L170.23 79.1159C166.052 93.873 159.831 116.607 159.74 119.001C159.662 121.079 159.426 127.402 155.285 130.928C153.471 132.477 151.163 133.258 148.412 133.258Z" fill="#00046A"/>
<path d="M206.504 106.371C117.469 143.271 47.4914 117.731 7.38404 76.069C4.67397 72.2743 4.81984 67.3281 9.15051 68.2738C10.0432 68.4685 10.8737 68.8873 11.6065 69.433C84.3694 123.611 167.615 111.839 208.759 81.3942C220.491 74.4707 222.907 99.4008 206.504 106.371Z" fill="#E5A363"/>
<g opacity="0.7">
<path d="M218.132 87.3397C216.99 83.1912 213.801 80.9459 209.164 83.6937C168.065 114.202 84.8355 126.096 11.9938 72.025C11.2671 71.4689 10.43 71.0746 9.53848 70.8685C7.1355 70.3451 6.01951 71.6362 5.97274 73.5395C4.92585 70.4867 5.77174 67.695 9.11832 68.4237C10.0108 68.6294 10.8489 69.0237 11.5764 69.5801C84.4181 123.651 167.649 111.757 208.747 81.2488C214.234 78.0035 217.689 81.736 218.132 87.3397Z" fill="#F1F2F2"/>
</g>
<g opacity="0.3">
<path d="M206.504 106.37C117.469 143.27 47.4912 117.732 7.38454 76.0686C6.33764 74.603 5.71857 72.9607 5.60132 71.5586C5.74719 71.8043 5.90771 72.0472 6.07871 72.2879C46.186 113.954 116.164 139.49 205.198 102.589C214.411 98.6739 217.688 89.092 216.709 82.6711C220.176 88.2273 217.809 101.565 206.504 106.37Z" fill="#00046A"/>
</g>
<path d="M203.972 92.0158C196.759 96.2216 189.122 99.6889 181.113 102.044C183.055 101.309 184.982 100.548 186.86 99.6742C190.619 97.9514 194.276 96.0135 197.812 93.8702C199.579 92.8024 201.337 91.6822 203.008 90.5202C204.021 89.8571 205.002 91.3577 203.972 92.0172V92.0158Z" fill="#00046A"/>
<path d="M14.8882 77.8794C21.314 81.7613 27.5026 85.9907 34.1253 89.5146C40.6628 92.9715 47.6351 96.3404 54.1008 99.9347C47.0374 97.3101 40.1437 94.2496 33.4594 90.7709C26.8061 87.1591 20.6873 82.7147 14.8896 77.8794H14.8882Z" fill="#00046A"/>
<path d="M36.7186 95.5753C42.27 98.2044 47.799 100.84 53.6358 102.726C57.8331 104.084 62.0765 104.82 66.3528 106.206C67.6258 106.642 68.8988 107.231 70.0043 108.02C71.775 109.309 73.5638 110.641 75.2793 112.006C73.7257 111.169 72.2084 110.272 70.6862 109.38C69.2471 108.457 67.6781 107.695 66.0171 107.262C62.6502 106.37 59.1369 105.792 55.7575 104.827C48.9338 102.915 42.5324 99.5815 36.7158 95.5732L36.7186 95.5753Z" fill="#00046A"/>
<path d="M75.2794 104.648C91.5273 107.224 107.697 110.099 124.044 112.005C115.791 112.156 107.556 111.242 99.4069 109.993C91.2732 108.661 83.1793 107.02 75.2773 104.648H75.2794Z" fill="#00046A"/>
<path d="M99.1277 115.981C101.964 115.658 104.781 115.764 107.611 115.981C110.436 116.235 113.234 116.604 115.976 117.402C113.139 117.73 110.318 117.623 107.492 117.402C104.668 117.146 101.869 116.774 99.1277 115.981Z" fill="#00046A"/>
<path d="M201.544 101.922C198.457 102.021 195.214 102.765 192.698 104.634L191.941 105.18C188.861 107.204 185.219 108.181 181.584 108.467C179.177 108.669 176.756 108.488 174.409 108.032C179.113 108.66 184.003 108.067 188.308 106.06C189.362 105.573 190.363 104.975 191.291 104.278C192.226 103.491 193.212 102.701 194.304 102.147C195.975 101.278 197.771 100.727 199.612 100.389C200.235 100.272 200.864 100.19 201.497 100.143C201.616 100.135 201.736 100.151 201.85 100.19C201.963 100.23 202.067 100.292 202.156 100.373C202.245 100.453 202.316 100.551 202.366 100.66C202.416 100.769 202.443 100.888 202.447 101.007C202.45 101.127 202.429 101.247 202.385 101.358C202.341 101.47 202.274 101.571 202.19 101.657C202.106 101.742 202.005 101.81 201.894 101.855C201.783 101.901 201.664 101.923 201.544 101.922Z" fill="#00046A"/>
<path d="M176.094 116.075C177.415 112.507 180.479 109.844 183.822 108.206C184.291 107.984 184.772 107.788 185.243 107.583C184.381 108.104 183.479 108.669 182.701 109.312C180.952 110.708 179.445 112.483 178.502 114.509C178.245 115.047 178.04 115.608 177.89 116.185C177.864 116.282 177.843 116.382 177.826 116.482C177.811 116.606 177.769 116.726 177.705 116.834C177.64 116.941 177.553 117.034 177.45 117.106C177.347 117.178 177.23 117.227 177.107 117.251C176.983 117.274 176.856 117.272 176.734 117.243C176.612 117.214 176.497 117.16 176.397 117.084C176.297 117.008 176.214 116.912 176.154 116.802C176.094 116.692 176.057 116.57 176.047 116.445C176.036 116.32 176.053 116.194 176.094 116.076V116.075Z" fill="#00046A"/>
<path d="M136.055 113.015C141.281 111.963 146.5 111.489 151.805 111.035C147.289 113.354 141.018 113.952 136.055 113.015Z" fill="#00046A"/>
<path d="M136.501 116.693C138.839 116.414 141.126 116.392 143.453 116.345C145.522 116.33 148.316 116.246 150.383 116.275C146.355 118.251 140.682 118.179 136.501 116.69V116.693Z" fill="#00046A"/>
<path d="M123.243 125.596C111.299 125.596 99.6099 124.42 88.3069 122.074C56.7422 115.524 28.4041 99.9577 6.35716 77.0578C6.30923 77.0078 6.26492 76.9544 6.22456 76.898C4.09447 73.9158 3.54171 70.4149 4.87964 68.3833C5.41775 67.5681 6.72637 66.2895 9.45318 66.8841C10.5001 67.1123 11.5072 67.582 12.4543 68.2918C53.961 99.1969 94.9567 105.707 122.039 105.725H122.156C154.779 105.725 186.028 96.4422 207.909 80.2502C207.949 80.2204 207.99 80.1931 208.033 80.1685C211.644 78.037 214.207 78.7161 215.72 79.6611C218.454 81.3669 219.921 85.4016 219.546 90.1894C219.07 96.2824 215.54 104.078 207.059 107.682L207.047 107.687C185.573 116.587 164.234 122.236 143.622 124.477C136.854 125.218 130.051 125.592 123.243 125.596ZM8.48376 75.1588C56.6759 125.155 130.488 136.328 205.952 105.059C213.255 101.952 216.298 95.2264 216.709 89.9675C216.996 86.2985 216.016 83.1976 214.215 82.0767C212.999 81.318 211.423 81.489 209.543 82.5841C187.186 99.102 155.345 108.57 122.157 108.571H122.038C94.5261 108.552 52.8868 101.945 10.7555 70.5748C10.1337 70.112 9.49087 69.807 8.84599 69.6675C8.0329 69.4895 7.49898 69.5865 7.25749 69.9522C6.68659 70.8149 7.04742 73.102 8.48376 75.1588Z" fill="#00046A"/>
<path d="M206.407 107.201C204.184 107.201 202.933 105.78 202.405 104.983C200.716 102.427 200.451 97.7542 201.693 92.4855C202.968 87.0835 205.474 82.5002 208.569 79.9109C208.858 79.6685 209.233 79.5511 209.609 79.5844C209.985 79.6178 210.332 79.7993 210.575 80.0888C210.817 80.3784 210.935 80.7525 210.901 81.1286C210.868 81.5048 210.686 81.8523 210.397 82.0947C207.802 84.2653 205.585 88.3942 204.464 93.1395C203.429 97.5239 203.557 101.557 204.781 103.412C205.109 103.909 205.878 105.07 208.489 103.738C208.826 103.566 209.217 103.535 209.576 103.652C209.935 103.768 210.233 104.023 210.405 104.359C210.576 104.695 210.607 105.086 210.491 105.446C210.374 105.805 210.12 106.103 209.783 106.275C208.468 106.944 207.348 107.201 206.407 107.201Z" fill="#00046A"/>
<path d="M212.618 86.1609C211.599 86.6957 210.703 87.4384 209.988 88.3411C209.273 89.2439 208.756 90.2865 208.469 91.4016C208.076 92.6649 207.465 98.0767 209.684 97.7047C210.569 97.5504 211.435 96.7904 211.917 96.0045C212.549 95.0707 213.376 92.718 211.957 92.1791C211.494 92.0116 211.096 92.272 210.84 92.69C210.552 93.1541 210.406 93.7516 210.307 94.3476C209.969 92.7724 210.698 90.6981 212.68 91.4784C213.954 92.0493 214.137 93.6678 213.936 94.8787C213.558 96.9628 212.183 98.9344 210.009 99.4327C205.542 99.9995 206.056 93.6685 207.147 90.9564C208.044 88.6085 210.125 86.5776 212.618 86.1609Z" fill="#00046A"/>
<path d="M175.922 91.0387C173.519 98.0683 176.1 104.831 175.388 112.395C174.69 119.835 164.094 132.175 157.032 125.985C156.911 125.878 156.794 125.768 156.676 125.654C154.252 123.273 153.49 120.803 153.54 118.589C153.629 114.35 156.676 111.039 156.676 111.039C140.659 91.3807 155.131 79.3211 155.131 79.3211L170.8 61.8031L172.216 60.2188C181.467 69.8286 178.325 84.0063 175.922 91.0387Z" fill="#B5CFDD"/>
<path d="M155.129 79.3199C151.327 83.6645 149.615 89.5097 150.586 95.1413C151.094 97.8691 151.947 100.521 153.125 103.034C154.341 105.566 155.982 107.913 157.776 110.136C157.985 110.396 158.097 110.721 158.093 111.055C158.088 111.389 157.967 111.71 157.75 111.964C157.622 112.109 157.471 112.294 157.321 112.49C155.335 115.073 154.164 118.727 155.611 121.786C157.208 125.017 160.032 127.257 163.711 125.756C168.468 123.832 172.844 117.957 173.866 112.984C174.153 111.08 174.113 109.141 174.025 107.211C173.784 102.598 172.953 97.8179 173.894 93.1501C174.114 92.0949 174.401 91.0552 174.756 90.0373C177.272 82.2659 178.338 73.2954 174.508 65.8261C173.623 64.1393 172.506 62.585 171.189 61.2086C171.055 61.0748 170.95 60.9156 170.878 60.7405C170.807 60.5654 170.771 60.3777 170.772 60.1886C170.774 59.9994 170.814 59.8125 170.889 59.6387C170.963 59.465 171.072 59.3079 171.208 59.1767C171.345 59.0454 171.506 58.9426 171.682 58.8743C171.859 58.806 172.047 58.7736 172.236 58.7789C172.425 58.7842 172.611 58.8271 172.784 58.9051C172.956 58.9832 173.111 59.0948 173.24 59.2334C175.504 61.5948 177.238 64.4113 178.329 67.4955C181.168 75.6306 179.691 84.4113 177.021 92.3314C175.375 98.0482 177.096 104.143 176.927 110.222C176.897 111.282 176.857 112.446 176.669 113.491C175.465 119.445 170.427 126.143 164.727 128.42C159.618 130.451 155.246 127.611 153.018 122.967C151.119 118.93 152.441 114.152 155.054 110.77C155.233 110.538 155.39 110.337 155.624 110.072L155.568 111.936C152.713 108.409 150.188 104.398 148.743 100.044C146.408 92.7027 148.903 83.8907 155.129 79.3206V79.3199Z" fill="#00046A"/>
<path d="M155.994 109.783L162.219 108.032L157.349 112.289C157.058 112.544 156.677 112.672 156.291 112.646C155.905 112.62 155.545 112.441 155.29 112.15C154.579 111.375 154.984 110.045 155.994 109.784V109.783Z" fill="#00046A"/>
<path d="M167.024 126.719C165.724 126.536 164.642 125.39 164.237 124.234C163.873 123.267 163.869 122.28 163.958 121.291L164.255 121.919C164.776 122.886 165.631 124.036 166.803 123.979C166.899 123.967 167.018 123.956 167.073 123.892C167.066 123.885 167.092 123.878 167.024 123.869V126.717V126.719Z" fill="#00046A"/>
<path d="M157.694 127.849C156.95 125.242 156.745 122.229 158.036 119.778C157.741 122.105 158.698 124.354 159.982 126.229C160.057 126.339 160.138 126.444 160.225 126.544L157.694 127.849Z" fill="#00046A"/>
<path d="M87.2921 127.196C79.4613 128.944 69.6588 123.534 68.1995 115.026C68.1995 115.026 71.8985 115.941 75.8027 114.973C77.3933 114.581 79.0202 113.873 80.4405 112.659C84.5513 109.146 92.7562 107.868 96.5327 112.047C97.2515 112.845 97.8106 113.841 98.1484 115.059C100.255 122.665 95.1229 125.447 87.2921 127.196Z" fill="#B5CFDD"/>
<path d="M84.2498 128.946C80.7273 128.946 77.0423 127.821 73.9092 125.722C70.0329 123.123 67.5064 119.411 66.7952 115.268C66.755 115.035 66.7736 114.795 66.8492 114.571C66.9248 114.347 67.0551 114.145 67.2283 113.984C67.4014 113.823 67.6121 113.707 67.8411 113.648C68.0702 113.588 68.3104 113.587 68.5401 113.644C68.6594 113.673 75.2709 115.206 79.5178 111.577C83.1059 108.511 89.0941 107.201 93.4464 108.532C96.5718 109.486 98.6726 111.614 99.5226 114.682C100.383 117.787 100.177 120.431 98.9119 122.54C96.7609 126.124 91.9892 127.607 87.6055 128.586C86.5034 128.828 85.3782 128.949 84.2498 128.946ZM70.1265 116.761C71.0617 119.333 72.9182 121.628 75.495 123.356C79.009 125.711 83.3027 126.628 86.9822 125.807C92.2865 124.62 95.2178 123.163 96.4678 121.075C97.3283 119.641 97.4295 117.799 96.7763 115.442C96.1914 113.329 94.79 111.921 92.6124 111.255C89.1688 110.202 84.2289 111.295 81.3653 113.742C77.6948 116.879 72.9091 117.018 70.1265 116.761Z" fill="#00046A"/>
<path d="M92.9111 110.572C91.7498 112.643 89.8849 114.76 87.3975 114.969C89.1562 114.158 90.0175 112.302 90.437 110.52C90.495 110.285 90.5363 110.046 90.5605 109.805L92.9104 110.569L92.9111 110.572Z" fill="#00046A"/>
<path d="M99.8116 119.252C97.5866 121.625 93.9552 121.875 90.9744 121.155L92.0262 121.011C94.0809 120.635 96.539 119.615 97.426 117.698L99.8116 119.252Z" fill="#00046A"/>
<path d="M172.215 142.915C171.948 142.915 171.686 142.84 171.459 142.699C171.232 142.557 171.05 142.355 170.933 142.114C170.816 141.874 170.769 141.606 170.797 141.34C170.826 141.074 170.928 140.822 171.093 140.612C176.886 133.21 182.314 124.912 182.756 114.407C182.761 114.218 182.804 114.033 182.881 113.861C182.959 113.689 183.07 113.534 183.208 113.405C183.346 113.277 183.508 113.177 183.685 113.111C183.862 113.046 184.05 113.016 184.239 113.024C184.427 113.032 184.612 113.077 184.783 113.157C184.954 113.237 185.107 113.35 185.234 113.49C185.361 113.63 185.458 113.794 185.521 113.971C185.584 114.149 185.611 114.338 185.601 114.526C185.245 122.978 181.971 130.003 177.799 136.259C189.182 127.018 194.728 110.164 194.787 109.979C194.903 109.62 195.156 109.321 195.493 109.149C195.829 108.976 196.219 108.945 196.579 109.061C196.938 109.176 197.237 109.43 197.409 109.766C197.582 110.102 197.613 110.493 197.498 110.852C197.218 111.71 190.566 131.966 176.17 140.919C176.15 140.931 176.13 140.943 176.109 140.954L172.906 142.734C172.695 142.852 172.457 142.914 172.215 142.915Z" fill="#00046A"/>
<path d="M192.297 156.263C192.07 156.263 191.845 156.208 191.643 156.103C188.432 154.44 183.974 151.632 182.337 146.455C180.745 141.423 182.036 135.016 186.283 126.866C186.455 126.538 186.747 126.289 187.099 126.173C187.451 126.056 187.834 126.082 188.168 126.244C188.332 126.323 192.216 128.249 194.802 132.878C197.157 137.088 198.857 144.422 193.582 155.453C193.466 155.695 193.284 155.9 193.057 156.043C192.829 156.187 192.566 156.263 192.297 156.263ZM188.115 129.551C184.786 136.33 183.788 141.589 185.051 145.595C185.964 148.479 188.018 150.757 191.64 152.854C194.865 145.48 195.094 139.231 192.317 134.266C191.275 132.408 189.841 130.799 188.115 129.551Z" fill="#00046A"/>
<path d="M189.139 127.34C190.711 133.509 191.435 139.972 190.605 146.296C190.624 141.603 189.712 136.967 188.34 132.502C187.879 131.024 187.357 129.529 186.781 128.15C186.169 126.508 188.607 125.662 189.139 127.34Z" fill="#00046A"/>
<path d="M27.1081 138.405C26.7987 137.234 26.5622 136.045 26.3997 134.845C25.0262 124.348 31.0696 119.244 35.3521 116.984C37.5729 115.81 39.3205 115.4 39.3205 115.4C46.8037 128.983 34.4957 134.489 27.1081 138.405Z" fill="#62CE3E"/>
<g opacity="0.7">
<path d="M39.9268 116.571C39.0911 116.883 38.2767 117.249 37.4889 117.668C33.2064 119.928 27.1596 125.032 28.5366 135.528C28.6224 136.157 28.7292 136.81 28.8716 137.483C28.263 137.803 27.6718 138.111 27.1093 138.408C26.8 137.237 26.5634 136.049 26.4009 134.849C25.0274 124.352 31.0708 119.248 35.3533 116.988C37.5741 115.813 39.3217 115.404 39.3217 115.404C39.5388 115.799 39.7405 116.19 39.9268 116.571Z" fill="#F1F2F2"/>
</g>
<path d="M27.1081 139.83C26.7934 139.83 26.4875 139.726 26.2382 139.533C25.989 139.341 25.8104 139.072 25.7304 138.767C24.0693 132.437 24.5788 126.982 27.2477 122.557C31.2643 115.889 38.6889 114.087 39.0029 114.014C39.3051 113.943 39.6221 113.973 39.9058 114.099C40.1894 114.225 40.424 114.44 40.574 114.712C42.9776 119.076 43.6519 123.096 42.5777 126.66C40.6989 132.898 33.8969 136.458 28.9304 139.057C28.5363 139.264 28.1524 139.465 27.7788 139.662C27.5724 139.772 27.342 139.83 27.1081 139.83ZM38.6086 117.11C36.6146 117.813 32.2316 119.775 29.6674 124.052C27.6671 127.388 27.1353 131.498 28.0803 136.287C32.762 133.832 38.3643 130.764 39.8474 125.84C40.6249 123.262 40.2201 120.397 38.6093 117.11H38.6086Z" fill="#00046A"/>
<path d="M40.5363 115.685C38.6016 121.277 35.4365 126.41 31.3801 130.69C33.8737 127.172 35.7986 123.283 37.0843 119.167C37.4961 117.851 37.8834 116.426 38.1138 115.095C38.4732 113.364 41.0074 113.971 40.5363 115.681V115.685Z" fill="#00046A"/>
<path d="M22.0056 110.19C16.2533 114.229 9.64734 112.944 5.60004 108.613C3.13704 105.975 1.62182 102.209 1.83749 97.8278C7.07755 96.4605 11.1423 96.8702 14.2851 98.6653C18.0009 100.789 20.4325 104.843 22.0056 110.19Z" fill="#62CE3E"/>
<g opacity="0.7">
<path d="M4.20833 99.9061C3.99895 104.181 5.43669 107.872 7.79639 110.499C4.07991 107.972 1.56386 103.394 1.83745 97.8276C9.03173 95.9516 14.0038 97.4214 17.4244 101.227C14.1818 99.0267 9.88949 98.4251 4.20833 99.9061Z" fill="#F1F2F2"/>
</g>
<path d="M14.6012 114.053C12.3342 114.049 10.1054 113.469 8.12439 112.366C3.06648 109.58 0.114235 103.983 0.417835 97.7593C0.432663 97.4564 0.54375 97.1662 0.734926 96.9308C0.926103 96.6955 1.1874 96.5273 1.48079 96.4507C12.55 93.5654 19.9159 98.0517 23.3756 109.788C23.4599 110.074 23.4525 110.379 23.3543 110.66C23.2561 110.941 23.0722 111.185 22.8284 111.356C20.2761 113.147 17.4299 114.053 14.6012 114.053ZM3.24446 98.9541C3.34705 103.651 5.68094 107.771 9.49513 109.873C12.9443 111.772 16.8416 111.656 20.327 109.584C17.3371 100.461 11.8744 97.06 3.24446 98.9541Z" fill="#00046A"/>
<path d="M19.9361 111.329C15.6899 108.87 11.4848 106.164 8.125 102.574C11.9727 105.486 16.4667 107.394 20.9495 109.052C22.6245 109.707 21.5483 112.137 19.9361 111.329Z" fill="#00046A"/>
<g opacity="0.3">
<path d="M87.2921 127.196C79.4613 128.944 69.6588 123.534 68.1995 115.027C68.1995 115.027 71.8985 115.941 75.8027 114.973C75.8027 114.973 73.0941 119.422 79.8814 122.537C86.6688 125.652 99.1876 118.917 96.5327 112.051C97.2515 112.849 97.8106 113.845 98.1484 115.062C100.255 122.665 95.1229 125.447 87.2921 127.196Z" fill="#00046A"/>
</g>
<g opacity="0.3">
<path d="M157.188 125.569C155.871 129.164 152.985 132.507 146.585 131.716C144.887 131.507 143.538 130.958 142.464 130.181C142.947 130.031 143.563 129.967 144.332 130.014C151.718 130.458 152.252 121.293 152.252 121.293L154.017 121.631C154.017 121.631 155.697 123.736 157.188 125.569Z" fill="#00046A"/>
</g>
<g opacity="0.3">
<path d="M175.922 91.0387C173.519 98.0682 176.1 104.831 175.388 112.395C174.69 119.835 164.094 132.175 157.032 125.985C156.911 125.878 156.794 125.768 156.676 125.654C154.252 123.273 153.49 120.803 153.541 118.589L155.014 115.154C155.014 115.154 154.804 119.66 158.111 121.689C158.908 122.178 159.912 122.527 161.172 122.628C167.65 123.162 173.078 112.662 171.743 106.789C170.409 100.916 169.697 92.1065 173.434 84.4551C175.324 80.5899 174.915 74.222 173.306 68.4201C172.647 66.0527 171.789 63.7782 170.8 61.8065C169.426 59.0518 167.803 56.891 166.137 55.8908C165.262 55.3639 165.026 54.9047 165.279 54.5166C167.831 55.9941 170.195 57.8667 172.216 60.2222C181.468 69.8285 178.325 84.0063 175.922 91.0387Z" fill="#00046A"/>
</g>
<g opacity="0.3">
<path d="M57.2831 111.086C48.4341 116.412 38.9164 116.02 31.5874 114.286C32.8329 114.077 34.0933 113.97 35.3562 113.966C50.3618 113.845 45.3827 106.384 45.3827 106.384L47.3048 105.966L57.2831 111.086Z" fill="#00046A"/>
</g>
<g opacity="0.3">
<path d="M27.1083 138.405C26.799 137.234 26.5624 136.045 26.3999 134.845C27.8879 134.76 30.2762 133.638 33.925 129.567C41.3356 121.291 35.3523 116.984 35.3523 116.984C37.5731 115.81 39.3207 115.4 39.3207 115.4C46.8039 128.983 34.4959 134.489 27.1083 138.405Z" fill="#00046A"/>
</g>
<g opacity="0.3">
<path d="M22.0057 110.189C16.2533 114.229 9.6474 112.944 5.6001 108.613C14.8686 109.634 17.1648 105.911 14.2852 98.667C18.0009 100.789 20.4325 104.843 22.0057 110.189Z" fill="#00046A"/>
</g>
<g opacity="0.3">
<path d="M184.276 131.827C194.132 116.682 184.18 117.066 184.18 117.066L184.088 115.891C184.13 115.422 184.157 114.948 184.18 114.468L196.143 110.42C196.143 110.42 192.32 122.28 184.276 131.827Z" fill="#00046A"/>
</g>
<path d="M158.324 158.576C158.324 158.576 158.307 158.437 158.285 158.185C158.036 155.463 157.21 139.433 172.26 140.077C172.943 140.106 173.66 140.17 174.409 140.27C174.409 140.27 178.364 157.39 158.324 158.576Z" fill="#62CE3E"/>
<g opacity="0.7">
<path d="M174.612 141.562C160.257 140.42 159.563 153.821 159.751 158.458C159.289 158.509 158.816 158.548 158.324 158.576C158.324 158.576 155.602 137.746 174.409 140.27C174.409 140.27 174.52 140.754 174.612 141.562Z" fill="#F1F2F2"/>
</g>
<path d="M158.319 160C157.974 160 157.64 159.874 157.381 159.646C157.121 159.418 156.953 159.103 156.909 158.761C156.852 158.329 155.594 148.113 161.37 142.359C164.464 139.276 168.914 138.102 174.596 138.862C174.883 138.9 175.151 139.025 175.365 139.22C175.579 139.415 175.729 139.67 175.794 139.952C175.864 140.262 177.495 147.596 173.148 153.406C170.177 157.377 165.217 159.595 158.404 159.999C158.378 159.999 158.35 160 158.319 160ZM171.405 141.485C168.005 141.485 165.316 142.449 163.387 144.368C159.709 148.024 159.52 154.297 159.633 157.042C164.843 156.499 168.619 154.705 170.87 151.699C173.596 148.055 173.419 143.523 173.178 141.566C172.569 141.512 171.979 141.485 171.408 141.485H171.405Z" fill="#00046A"/>
<path d="M174.923 140.897C171.258 145.489 167.397 149.995 162.841 153.712C166.78 149.437 169.918 144.499 172.849 139.517C173.778 138.009 175.956 139.451 174.923 140.897Z" fill="#00046A"/>
<g opacity="0.3">
<path d="M158.324 158.576C158.324 158.576 158.307 158.437 158.285 158.185C174.569 152.113 172.213 140.206 172.213 140.206L172.26 140.078C172.943 140.106 173.66 140.17 174.409 140.27C174.409 140.27 178.364 157.391 158.324 158.576Z" fill="#00046A"/>
</g>
<g opacity="0.3">
<path d="M194.612 148.834H194.608C192.863 137.084 189.767 130.958 183.76 137.024V137.02C184.436 134.276 185.664 131.136 187.547 127.52C187.547 127.524 199.101 133.14 194.612 148.834Z" fill="#00046A"/>
</g>
<path d="M119.048 47.3161C120.912 51.5288 127.6 48.654 128.712 41.4793C134.346 47.4815 140.557 33.5676 131.308 23.1935C140.916 21.3719 131.123 2.44332 109.091 1.44458C99.7111 1.08306 89.2602 4.72486 82.2202 21.7293L119.048 47.3161Z" fill="#B5CFDD"/>
<g opacity="0.3">
<path d="M128.712 41.478C127.603 48.6499 120.921 51.5282 119.052 47.3245C121.48 46.7006 124.133 43.9486 124.798 39.6627C130.431 45.6649 136.641 31.7523 127.392 21.381C134.38 20.055 131.105 9.68022 120.325 3.73804C134.154 9.05418 139.079 21.7244 131.306 23.1964C140.558 33.569 134.347 47.4823 128.712 41.478Z" fill="#00046A"/>
</g>
<g opacity="0.7">
<path d="M134.617 16.6394C131.429 10.857 122.792 4.31179 110.077 3.7346C107.698 3.64317 105.249 3.8044 102.807 4.38438C101.559 7.29405 99.321 7.81331 96.4923 6.91716C91.7882 9.69074 87.3494 14.5888 83.7383 22.7818L82.2217 21.7343C89.2596 4.72497 99.7111 1.08944 109.092 1.44957C123.52 2.10144 132.705 10.4487 134.617 16.6394Z" fill="#F1F2F2"/>
</g>
<path d="M122.023 32.7615C125.469 25.3308 121.959 16.3835 114.183 12.7771C106.406 9.17082 97.309 12.2711 93.8629 19.7019C90.4168 27.1327 93.9271 36.08 101.703 39.6863C109.48 43.2926 118.577 40.1923 122.023 32.7615Z" fill="#FF67A0"/>
<g opacity="0.3">
<path d="M122.778 22.7175C121.21 20.7144 119.187 19.114 116.877 18.0491C109.101 14.4428 100.001 17.5403 96.5557 24.9697C95.0474 28.2214 94.8709 31.7655 95.8012 35.02C92.4253 30.7005 91.4859 24.842 93.8672 19.708C97.3136 12.2779 106.411 9.17626 114.19 12.7839C118.562 14.8135 121.586 18.5306 122.778 22.7175Z" fill="#00046A"/>
</g>
<path d="M108.455 42.4405C105.942 42.4376 103.46 41.8862 101.182 40.8248C92.796 36.9345 89.0069 27.2277 92.7373 19.1889C96.4678 11.1501 106.323 7.76654 114.712 11.6561C123.1 15.5457 126.887 25.2539 123.157 33.2955C120.479 39.0709 114.639 42.4405 108.455 42.4405ZM107.434 12.532C102.191 12.532 97.255 15.3663 94.9972 20.2337C91.8454 27.0294 95.0908 35.2525 102.231 38.5642C109.37 41.8758 117.745 39.0422 120.897 32.2472C124.049 25.4521 120.804 17.2284 113.663 13.9167C111.713 13.0071 109.587 12.5345 107.434 12.532Z" fill="#00046A"/>
<path d="M121.932 50.6984C120.211 50.6984 118.767 49.8273 117.933 48.2737L81.4073 22.9004C81.1404 22.7152 80.945 22.4442 80.8534 22.1325C80.7619 21.8208 80.7798 21.4872 80.9041 21.187C84.2346 13.1399 88.6434 7.31564 94.0077 3.87833C98.4005 1.06218 103.352 -0.197593 109.144 0.0250471C118.588 0.453577 124.987 3.92719 128.699 6.76567C133.181 10.1953 136.13 14.6432 136.395 18.3723C136.572 20.859 135.579 22.7972 133.673 23.8587C139.08 31.247 138.014 39.9488 134.595 43.077C133.109 44.4365 131.292 44.6948 129.595 43.8928C128.265 47.9122 125.279 50.3047 122.638 50.6537C122.404 50.6839 122.168 50.6988 121.932 50.6984ZM83.9854 21.2212L119.859 46.1451C120.073 46.2944 120.242 46.4996 120.348 46.7383C120.725 47.5919 121.351 47.9478 122.261 47.8278C124.253 47.5646 126.697 45.1756 127.304 41.2602C127.345 40.997 127.459 40.7507 127.633 40.5492C127.808 40.3476 128.035 40.199 128.289 40.1202C128.544 40.0414 128.815 40.0355 129.073 40.1033C129.331 40.1711 129.564 40.3098 129.747 40.5037C131.333 42.1941 132.302 41.307 132.668 40.9734C135.019 38.8217 136.297 30.9301 130.241 24.1421C130.073 23.954 129.958 23.7247 129.908 23.4777C129.858 23.2307 129.874 22.9748 129.955 22.7362C130.037 22.4976 130.18 22.2848 130.37 22.1196C130.56 21.9543 130.791 21.8425 131.039 21.7956C132.86 21.4467 133.682 20.3956 133.551 18.5719C133.178 13.3178 124.661 3.57682 109.021 2.86842C97.7661 2.4364 89.5682 8.44141 83.9854 21.2226V21.2212Z" fill="#00046A"/>
<path d="M60.6729 24.0919L28.3182 52.481C28.1526 52.7143 27.9672 52.9328 27.7641 53.1343C24.8474 56.0383 18.7531 55.0598 18.5863 47.9696C15.4609 48.9641 11.0975 47.3917 10.671 41.9318C10.4547 39.1163 11.2873 35.2651 13.8815 30.2016C3.423 27.9634 12.7851 11.8405 27.9567 6.91027C42.683 1.51247 60.9528 9.91975 60.6729 24.0919Z" fill="#B5CFDD"/>
<g opacity="0.7">
<path d="M13.2374 47.1139C10.491 45.0829 9.10425 40.1981 13.289 31.3958C13.9172 31.8061 14.6989 32.1209 15.6411 32.3219C11.9372 39.5546 11.8269 44.3096 13.2374 47.1139Z" fill="#F1F2F2"/>
</g>
<g opacity="0.7">
<path d="M57.7194 14.6312C51.3738 8.07066 39.7274 5.36409 29.7163 9.03102C28.7274 9.35074 27.7556 9.7209 26.8045 10.14C25.512 13.7818 22.945 15.0353 19.4658 14.5754C13.444 19.3785 10.0912 25.5497 11.5366 29.2766C5.14774 25.1588 14.1427 11.3921 27.9561 6.90372C38.9827 2.86828 51.9964 6.56592 57.7194 14.6312Z" fill="#F1F2F2"/>
</g>
<path d="M24.0287 56.0837C23.383 56.0844 22.7408 55.9887 22.1234 55.7996C19.5466 55.0102 17.8179 52.7629 17.3126 49.6515C15.0094 49.8169 12.6874 48.8999 11.1896 47.132C9.51457 45.152 7.47591 40.4863 11.875 31.0572C9.53202 30.0508 8.1543 28.1462 8.02519 25.6469C7.69507 19.2643 15.9474 9.32437 27.4884 5.56182C36.2321 2.36878 46.6026 3.6774 53.9163 8.89304C59.3099 12.7407 62.2161 18.1483 62.0981 24.1191C62.0964 24.3073 62.0573 24.4933 61.9832 24.6663C61.9091 24.8393 61.8015 24.9959 61.6665 25.1271C61.5315 25.2582 61.3718 25.3613 61.1968 25.4303C61.0217 25.4994 60.8346 25.533 60.6465 25.5293C60.4583 25.5256 60.2727 25.4847 60.1005 25.4088C59.9283 25.333 59.7728 25.2237 59.643 25.0874C59.5133 24.951 59.4118 24.7903 59.3446 24.6145C59.2774 24.4388 59.2456 24.2514 59.2513 24.0633C59.3497 19.0605 56.8678 14.4967 52.2629 11.2109C45.6856 6.51868 36.3354 5.35453 28.4432 8.24466L28.3936 8.26211C23.5514 9.83594 18.9848 12.7163 15.5349 16.3735C12.4843 19.6056 10.7401 23.0178 10.8686 25.4996C10.96 27.2689 12.0425 28.3507 14.1781 28.8078C14.3918 28.8535 14.5921 28.9477 14.7635 29.0833C14.9349 29.2188 15.0728 29.392 15.1665 29.5894C15.2601 29.7868 15.3071 30.0031 15.3037 30.2216C15.3003 30.4401 15.2466 30.6549 15.1469 30.8493C11.7898 37.4035 11.1394 42.668 13.3623 45.2916C14.6737 46.8396 16.7123 47.0699 18.155 46.6106C18.3659 46.5435 18.5896 46.5265 18.8082 46.561C19.0269 46.5954 19.2345 46.6804 19.4146 46.8091C19.5947 46.9379 19.7422 47.1068 19.8456 47.3025C19.949 47.4983 20.0053 47.7154 20.0101 47.9367C20.0743 50.651 21.1484 52.5256 22.9581 53.0805C23.7191 53.3075 24.5318 53.2927 25.284 53.0378C26.0361 52.783 26.6906 52.3009 27.1569 51.6581C27.3783 51.3571 27.7092 51.1552 28.0782 51.096C28.4472 51.0368 28.8246 51.1251 29.1291 51.3417C29.4336 51.5583 29.6407 51.886 29.7058 52.254C29.7708 52.622 29.6886 53.0008 29.4768 53.3087C28.2247 55.0696 26.1463 56.083 24.0287 56.0837Z" fill="#00046A"/>
<path d="M55.6587 38.8609C59.4421 30.7027 55.606 20.8879 47.0905 16.9388C38.575 12.9896 28.6048 16.4016 24.8214 24.5597C21.038 32.7178 24.8741 42.5327 33.3896 46.4819C41.9051 50.431 51.8753 47.019 55.6587 38.8609Z" fill="#FF67A0"/>
<g opacity="0.3">
<path d="M28.4218 30.1206C26.5136 34.2342 26.545 38.7687 28.1349 42.7588C23.479 37.9507 21.9436 30.776 24.8218 24.5665C28.6067 16.407 38.5774 12.9955 47.0921 16.9451C51.316 18.9042 54.3855 22.3017 55.9454 26.2276C54.4383 24.6718 52.6569 23.4078 50.6907 22.4992C42.1759 18.5531 32.2032 21.9639 28.4218 30.1206Z" fill="#00046A"/>
</g>
<path d="M40.7799 49.3833C38.0449 49.3778 35.3441 48.7755 32.866 47.6182C28.4544 45.5726 25.0694 41.9998 23.3337 37.5582C21.5888 33.0984 21.718 28.2981 23.6924 24.0414C25.6668 19.7847 29.2493 16.5875 33.7803 15.0381C38.2917 13.4956 43.2024 13.772 47.6168 15.8177C52.0312 17.8633 55.4134 21.436 57.1484 25.8776C58.8933 30.3374 58.7641 35.1378 56.7897 39.3945C54.8153 43.6512 51.2335 46.8491 46.7025 48.3978C44.7961 49.0505 42.7949 49.3834 40.7799 49.3833ZM39.7015 16.5442C37.9613 16.5437 36.2329 16.8309 34.5864 17.3943C30.7045 18.7203 27.6385 21.4555 25.953 25.0897C24.2675 28.7238 24.1614 32.8304 25.6543 36.6516C27.1548 40.4902 30.0882 43.5835 33.9143 45.3583C37.7404 47.1331 41.9949 47.3746 45.8957 46.0402C49.7776 44.7141 52.8436 41.9789 54.5291 38.3448C56.2153 34.71 56.3214 30.604 54.8278 26.7829C53.3273 22.9442 50.3939 19.851 46.5685 18.0769C44.4183 17.0725 42.0748 16.5494 39.7015 16.5442Z" fill="#00046A"/>
<g opacity="0.3">
<path d="M53.5938 10.561C53.5938 10.561 57.0297 20.9176 48.5192 16.7084L55.4217 25.0431L60.3163 22.5731L59.4411 17.6876L57.1149 13.8232" fill="#00046A"/>
</g>
<g opacity="0.3">
<path d="M27.7642 53.1341C24.8475 56.0382 18.7532 55.0597 18.5864 47.9694C15.461 48.964 11.0976 47.3916 10.6711 41.9316C11.0558 42.1119 11.3943 42.3776 11.6608 42.7084C14.9509 46.7222 20.8491 45.2049 20.8491 45.2049C23.0448 50.7668 25.4952 52.4962 28.6966 43.0225L31.094 45.4248C31.094 45.4248 29.2263 49.7708 27.7642 53.1341Z" fill="#00046A"/>
</g>
<g opacity="0.3">
<path d="M99.3105 11.9583C99.3105 11.9583 90.2807 19.7953 84.7768 18.1259L84.4146 19.341L84.4843 20.8876L92.8944 22.578L94.24 18.9131" fill="#00046A"/>
</g>
<path d="M121.086 56.4639C126.304 92.8192 64.2744 105.127 37.3705 86.0039C32.6944 82.681 28.8327 78.0949 27.1465 72.6127C18.7099 45.184 47.4989 22.8069 69.5689 19.588C90.7804 16.4948 117.959 32.1641 121.086 56.4639Z" fill="#B5CFDD"/>
<g opacity="0.3">
<path d="M37.3711 86.0039C33.1137 82.9791 29.5312 78.9102 27.6538 74.0693C29.4384 76.7403 31.7562 79.0504 34.3477 80.9251C59.9317 99.4552 119.86 86.2056 115.447 50.2084C114.778 44.0227 112.568 38.4322 109.31 33.5977C115.505 39.7066 119.935 47.5005 121.088 56.4675C126.304 92.8178 64.2729 105.127 37.3711 86.0039Z" fill="#00046A"/>
</g>
<g opacity="0.7">
<path d="M117.737 45.2455C108.347 29.2182 87.8351 19.9196 71.0513 22.368C48.9806 25.5875 20.1917 47.966 28.6296 75.3947C28.8892 76.2391 29.2016 77.0664 29.5649 77.8717C28.5343 76.2313 27.7218 74.4637 27.1479 72.6135C18.7099 45.1848 47.4989 22.807 69.5682 19.5895C87.3005 17.003 109.2 27.5271 117.737 45.2455Z" fill="#F1F2F2"/>
</g>
<path d="M70.1409 96.3737C56.8237 96.3737 44.9128 93.1123 36.5453 87.161C32.8016 84.4998 27.8959 79.8885 25.7853 73.0272C22.7047 63.0126 24.2066 52.7683 30.1279 43.4021C34.231 36.9113 40.3177 31.0431 47.7346 26.4277C54.6336 22.134 62.3144 19.2034 69.3628 18.1761C81.072 16.4675 94.9008 20.3794 105.451 28.3826C115.065 35.676 121.118 45.579 122.497 56.2685C124.277 68.7063 118.512 79.6701 106.264 87.1407C96.8124 92.9057 83.8707 96.269 70.7558 96.3674C70.5506 96.3723 70.3454 96.3737 70.1409 96.3737ZM74.9818 20.6293C73.2392 20.6261 71.4987 20.749 69.7738 20.9971C55.4341 23.0909 40.1208 32.9317 32.535 44.9271C27.0716 53.5689 25.6785 62.9979 28.5073 72.1939C30.3826 78.291 34.8103 82.4381 38.1952 84.8439C54.5268 96.4505 85.6392 96.3891 104.781 84.7134C112.718 79.8718 121.747 71.0779 119.677 56.6656C119.677 56.6593 119.677 56.6523 119.677 56.6453C118.399 46.7152 112.736 37.485 103.733 30.6551C95.3035 24.2627 84.6963 20.6293 74.9818 20.6293Z" fill="#00046A"/>
<path d="M58.0006 26.3559C65.6611 9.31102 79.4055 9.97405 73.0724 20.3167C83.1226 10.621 89.6302 22.6199 73.5205 26.9896" fill="#B5CFDD"/>
<path d="M58.0006 26.3559C59.7133 20.4075 65.137 11.8048 72.0988 11.6387C74.5632 11.6519 76.3066 13.6389 76.091 16.1264C75.9779 17.9249 75.1488 19.646 74.2827 21.0559L72.0925 19.2978C73.8276 17.6772 75.7672 16.2499 78.1471 15.6155C78.9302 15.4061 79.7928 15.3035 80.6024 15.3977C82.7604 15.5373 84.5974 17.3324 84.3391 19.5616C84.0076 22.2493 81.9348 23.8741 79.8403 25.0557C77.8219 26.0865 75.6848 26.7014 73.5233 26.9897C76.4218 25.7292 79.358 24.3194 81.2648 21.8306C82.0087 20.7837 82.5406 19.5797 81.9194 18.5503C81.2054 17.6723 79.8319 17.8384 78.8576 18.1497C77.572 18.5601 76.241 19.4227 75.1809 20.3293C74.8319 20.6015 74.379 21.0433 74.0447 21.3441C73.7937 21.5735 73.4687 21.7052 73.1288 21.715C72.7889 21.7249 72.4568 21.6123 72.193 21.3978C71.9292 21.1833 71.7512 20.8811 71.6915 20.5464C71.6318 20.2117 71.6944 19.8666 71.8678 19.5742C72.4457 18.604 72.9384 17.592 73.1708 16.6331C73.4409 15.4794 73.3446 14.3753 71.9655 14.302C70.4245 14.2266 68.9274 14.9301 67.5455 15.7502C63.5136 18.2697 60.5264 22.2905 58.0034 26.3525L58.0006 26.3559Z" fill="#00046A"/>
<path d="M89.3566 77.7083C90.079 84.1558 84.0977 90.1175 75.9982 91.0248C67.8987 91.9321 60.747 87.4409 60.0246 80.9935C59.3023 74.546 65.4762 70.3102 73.5764 69.4029C81.6766 68.4956 88.6342 71.2622 89.3566 77.7083Z" fill="#F8FDFF"/>
<path d="M81.6899 81.7047C80.3869 87.1485 74.4503 89.1027 70.3604 86.8805C67.6552 85.4065 65.7582 82.1109 66.5448 76.7856C66.5448 76.7856 74.8418 79.1586 81.5294 76.2273C82.0563 78.3267 82.0633 80.1566 81.6899 81.7047Z" fill="#00046A"/>
<path d="M72.8687 55.8435C67.7361 57.9638 63.3656 67.5171 67.2154 72.6916C68.069 73.839 69.3699 74.5544 70.7853 74.7582C74.0859 75.2321 77.1875 75.082 80.0455 74.1726C80.7214 73.9585 81.316 73.5434 81.7498 72.9826C85.9681 67.5053 82.4924 58.3219 76.7401 55.9259C75.5019 55.4101 74.1075 55.3312 72.8687 55.8435Z" fill="#00046A"/>
<path d="M81.6899 81.7046C80.3868 87.1484 74.4502 89.1026 70.3604 86.8804V86.8762C70.3604 86.8762 72.094 77.369 81.6899 81.7046Z" fill="#FF67A0"/>
<g opacity="0.4">
<path d="M68.9882 62.1716C68.3761 63.1801 66.5957 66.5755 68.0299 69.9549C68.1309 70.2009 68.3005 70.4126 68.5185 70.5649C69.1006 70.9585 69.5891 70.6263 69.8781 70.128C70.0443 69.8251 70.1294 69.4844 70.1251 69.139C70.1475 67.0103 70.3799 64.9947 70.9431 63.1584C71.0757 62.7271 71.0331 62.2421 70.7498 61.8903C70.4762 61.5511 70.0756 61.4248 69.6261 61.6034C69.3574 61.7186 69.1335 61.918 68.9882 62.1716Z" fill="#F1F2F2"/>
</g>
<path d="M73.9818 89.0276C72.5108 89.033 71.0617 88.6715 69.7656 87.9758C66.1573 86.0097 64.5311 81.8647 65.3121 76.6037C65.338 76.4282 65.4011 76.2602 65.4971 76.1111C65.5932 75.9619 65.72 75.835 65.8691 75.7389C66.0182 75.6427 66.1861 75.5795 66.3616 75.5535C66.5371 75.5276 66.7161 75.5394 66.8867 75.5882C66.9641 75.6099 74.8277 77.7895 81.0093 75.0948L81.0498 75.0773C81.4267 74.9126 81.7896 74.7326 82.133 74.5413C82.276 74.4577 82.4343 74.4035 82.5986 74.3818C82.7629 74.3601 82.9298 74.3714 83.0897 74.4151C83.2495 74.4587 83.3991 74.5338 83.5295 74.636C83.66 74.7381 83.7688 74.8652 83.8495 75.0099C83.9302 75.1546 83.9813 75.314 83.9997 75.4787C84.0181 75.6433 84.0034 75.81 83.9566 75.969C83.9098 76.1279 83.8317 76.2759 83.727 76.4043C83.6222 76.5327 83.493 76.6389 83.3467 76.7168C83.2192 76.7889 83.0894 76.8587 82.9572 76.9261C83.2943 78.7408 83.2755 80.4451 82.9007 81.9966C82.2209 84.8393 80.4028 87.0489 77.7821 88.2173C76.586 88.7505 75.2913 89.0265 73.9818 89.0276ZM67.6369 78.3227C67.4373 81.8291 68.614 84.5099 70.9563 85.7864C72.6942 86.73 74.8647 86.7886 76.768 85.942C78.6712 85.0954 79.9785 83.4888 80.4782 81.4152C80.7343 80.353 80.7734 79.1819 80.5947 77.9179C75.5724 79.5846 70.1586 78.8371 67.6369 78.3227Z" fill="#00046A"/>
<path d="M88.6127 58.2764C89.5088 59.4426 90.3575 60.5551 91.4993 61.3633C93.5129 62.829 95.9842 63.0307 98.2567 62.0934C99.3825 61.6048 100.429 60.8127 101.249 59.4335C102.016 63.1082 97.8714 65.9243 94.4788 65.4567C90.9466 65.1775 88.1402 61.7772 88.612 58.2764H88.6127Z" fill="#00046A"/>
<path d="M138 86.1287C138 86.1287 135.423 91.3758 132.33 94.3511C132.017 94.6527 131.688 94.9368 131.343 95.2018C131.337 95.2054 131.331 95.2104 131.326 95.2165C130.772 95.5638 130.2 95.8797 129.611 96.1629C129.611 96.1629 129.611 96.1629 129.604 96.1629C117.199 102.175 104.915 90.3791 109.998 70.7345C97.7786 73.3119 97.0667 58.5681 103.947 53.3183C118.722 43.245 128.532 52.7027 131.433 70.382C131.433 70.3855 141.677 73.3154 138 86.1287Z" fill="#B5CFDD"/>
<path d="M132.33 94.3513V94.5544C132.002 94.7861 131.675 95.0032 131.344 95.2021C131.688 94.937 132.017 94.653 132.33 94.3513Z" fill="#B5CFDD"/>
<path d="M132.304 84.1761C131.543 79.1105 130.876 74.2159 129.717 69.2899C128.376 63.16 126.526 56.3782 121.242 52.564C116.929 49.4317 111.512 50.54 107.168 53.0239C105.46 53.9487 103.872 54.9488 102.848 56.5834C100.878 59.5663 100.247 63.9549 102.154 67.0572C103.753 69.6214 106.924 69.9606 109.743 69.3402C110.738 69.1496 111.634 70.126 111.378 71.0969C110.1 76.2029 109.661 81.7501 111.384 86.7836C113.025 91.5204 116.928 95.6612 121.979 96.5085C125.488 97.1367 129.103 96.1519 132.328 94.5543C130.952 95.8916 129.344 96.9676 127.582 97.7299C121.748 100.277 114.97 98.3252 111.305 93.0998C106.727 86.4981 106.69 77.8926 108.621 70.3829C108.621 70.3829 110.296 72.134 110.292 72.1333C99.1688 74.5677 95.1564 63.331 100.479 55.0012C101.015 54.2027 101.641 53.4681 102.344 52.8118C103.127 52.088 103.88 51.6992 104.634 51.1946C105.728 50.5023 107.007 49.877 108.194 49.3395C122.11 43.4539 129.848 55.2943 132.421 67.4481C133.43 72.952 133.346 78.6938 132.302 84.1761H132.304Z" fill="#00046A"/>
<path d="M109.349 69.4727C112.194 68.2367 114.234 65.4763 115.294 62.6044C115.563 61.9064 115.769 61.1115 115.955 60.3835C115.941 61.1282 115.916 61.9818 115.812 62.7307C115.787 62.9942 115.748 63.256 115.694 63.5152C115.574 64.1751 115.417 64.8276 115.223 65.4694C114.381 68.0029 112.878 70.4463 110.649 72.0076C108.95 72.8151 107.7 70.387 109.349 69.4748V69.4727Z" fill="#00046A"/>
<path d="M131.823 69.0168C136.873 71.0332 139.839 76.0876 139.137 81.454C138.968 83.0753 138.551 84.6358 138 86.1301C138.628 83.0983 138.716 79.8529 137.422 77.0075C136.208 74.3874 133.809 72.4472 131.041 71.7562L131.823 69.0182V69.0168Z" fill="#00046A"/>
<path d="M131.326 95.2166C130.76 95.6437 130.184 95.9745 129.611 96.1629C130.2 95.8798 130.772 95.5638 131.326 95.2166Z" fill="#B5CFDD"/>
<path d="M55.2711 50.6112C51.9148 50.4611 49.0421 54.2893 48.8502 59.1616C48.6582 64.0338 51.2308 68.1055 54.5872 68.2563C57.9435 68.4071 60.8162 64.5782 61.0039 59.7052C61.1917 54.8323 58.6268 50.7613 55.2711 50.6112Z" fill="#00046A"/>
<path d="M55.1519 52.6527C54.1141 53.1573 53.7504 54.833 54.3395 56.3957C54.9286 57.9583 56.2476 58.8154 57.2855 58.3108C58.3233 57.8062 58.6876 56.1311 58.0986 54.5685C57.5095 53.0058 56.1904 52.1501 55.1519 52.6527Z" fill="white"/>
<path d="M52.1637 63.2764C51.6815 63.6777 51.6752 64.5906 52.1428 65.3151C52.6104 66.0396 53.3851 66.3027 53.8674 65.9014C54.3497 65.5 54.3559 64.5872 53.8883 63.8627C53.4207 63.1382 52.6523 62.8751 52.1637 63.2764Z" fill="#B199C5"/>
</svg>
