<svg width="213" height="193" viewBox="0 0 213 193" fill="none" xmlns="http://www.w3.org/2000/svg">
<path d="M44.2544 78.5854C44.2544 78.5854 42.2618 72.3906 36.0173 68.1999C25.2505 60.9792 9.91456 65.0208 1.34253 70.7064C1.34253 70.7064 10.1583 69.0679 18.4185 73.4451C23.1838 75.9693 32.4345 87.8587 44.2551 78.5854" fill="#4FAD32"/>
<path d="M36.2282 80.0333C31.0817 80.5527 26.6344 77.089 23.0611 74.3061C21.6676 73.221 20.464 72.2836 19.3483 71.692C16.0439 69.9411 12.6599 69.0868 9.72041 68.7021C13.5231 68.7832 17.1672 68.9064 19.9188 70.3523C24.2 72.6049 32.0967 79.0659 33.1036 73.9984C36.8838 74.5934 37.0145 72.6001 35.0185 70.5443C38.9703 73.1944 40.9363 76.0264 41.826 77.8964C39.9587 79.1401 38.1173 79.8413 36.2316 80.0319" fill="#438433"/>
<path d="M35.2271 83.3753C29.3447 83.3753 24.4365 79.5522 21.0375 76.9041C19.7658 75.9136 18.6678 75.0586 17.8059 74.6018C10.0699 70.5023 1.66054 71.9782 1.57953 71.9945C1.28305 72.049 0.976824 71.9995 0.712641 71.8543C0.448459 71.7091 0.242524 71.4771 0.129654 71.1975C0.0167842 70.918 0.00390383 70.6081 0.0931901 70.3201C0.182476 70.0322 0.368452 69.7839 0.619674 69.6173C8.67229 64.2734 24.9423 59.1964 36.7444 67.1135C43.2919 71.5044 45.4125 77.917 45.501 78.1846C45.5826 78.4391 45.5843 78.7125 45.506 78.9681C45.4276 79.2237 45.2729 79.4491 45.0626 79.6142C41.5723 82.3521 38.2693 83.3753 35.2271 83.3753ZM6.9493 69.1238C10.3197 69.2783 14.7276 70.0087 19.0299 72.2893C20.0939 72.8529 21.2764 73.7733 22.644 74.8394C27.6278 78.7196 34.3972 83.9934 42.6704 78.1356C41.8991 76.3772 39.7289 72.2647 35.2883 69.2858C26.5502 63.4259 14.9815 65.4845 6.9493 69.1238Z" fill="#184922"/>
<path d="M44.793 77.4268C44.793 77.4268 42.0285 69.1134 43.9761 57.4494C45.2314 49.9258 49.932 43.2217 48.9333 33.3508C48.9333 33.3508 60.3019 43.0039 56.779 62.4074C54.4501 75.2341 44.7978 77.4275 44.7978 77.4275" fill="#6FB643"/>
<path d="M46.1708 74.7854C45.5262 71.7431 44.6425 65.5061 45.9326 57.7734C46.3506 55.2676 48.0034 66.9288 51.5215 58.945C52.9511 69.0045 56.8716 50.776 54.8239 62.0506C53.3521 70.1515 48.7652 73.5069 46.1708 74.7854Z" fill="#43A335"/>
<path d="M44.7923 78.7336C44.5178 78.7334 44.2503 78.6468 44.0277 78.4862C43.8051 78.3255 43.6387 78.0989 43.552 77.8385C43.4349 77.4858 40.7078 69.0799 42.684 57.2328C43.1469 54.4587 44.0292 51.8814 44.9639 49.1522C46.5773 44.4394 48.2458 39.5659 47.6304 33.48C47.604 33.2205 47.6558 32.9591 47.7792 32.7293C47.9025 32.4995 48.0918 32.3118 48.3226 32.1904C48.5535 32.069 48.8153 32.0193 49.0746 32.0479C49.3338 32.0765 49.5786 32.1819 49.7775 32.3506C50.2649 32.7645 61.6811 42.7219 58.0643 62.6393C55.6081 76.1611 45.5112 78.6036 45.0823 78.701C44.9872 78.7228 44.8899 78.7338 44.7923 78.7336ZM50.3684 36.9076C50.2281 41.8512 48.8142 45.9813 47.4411 50.0005C46.5425 52.6241 45.6936 55.1061 45.2668 57.6637C43.8325 66.2629 45.0476 73.0439 45.695 75.7451C48.1872 74.724 53.8123 71.4299 55.4937 62.1709C57.2378 52.5669 55.1363 45.5211 53.0655 41.3011C52.3084 39.7545 51.4052 38.2838 50.3684 36.9089V36.9076Z" fill="#184922"/>
<path d="M13.1381 68.4014C14.5159 68.1134 15.9292 68.0753 17.3261 68.1359C18.722 68.2089 20.1088 68.4043 21.4705 68.72C22.8293 69.0336 24.1622 69.4503 25.4577 69.9664C26.1017 70.2299 26.7429 70.5001 27.3638 70.8078C27.989 71.1032 28.598 71.4318 29.1882 71.7922C30.3693 72.5097 31.4782 73.3416 32.5736 74.2123C33.6689 75.083 34.7608 75.9863 35.9576 76.7991C37.1543 77.6119 38.4661 78.3111 39.8869 78.7515C41.3049 79.2042 42.8005 79.3771 44.2723 79.3717C44.379 79.3776 44.4858 79.3615 44.5861 79.3246C44.6864 79.2878 44.7781 79.2307 44.8555 79.1571C44.933 79.0835 44.9946 78.9948 45.0366 78.8966C45.0785 78.7983 45.0999 78.6924 45.0995 78.5856C45.0991 78.4787 45.0769 78.3731 45.0341 78.2751C44.9914 78.1771 44.9291 78.089 44.8511 78.016C44.773 77.9429 44.6809 77.8867 44.5803 77.8505C44.4797 77.8144 44.3728 77.7993 44.2662 77.806H44.2246C42.8883 77.874 41.5506 77.7808 40.2674 77.437C38.9842 77.0932 37.7575 76.5309 36.5914 75.8161C35.4252 75.1013 34.3061 74.264 33.1597 73.4403C32.0133 72.6166 30.8308 71.8065 29.5735 71.1257C28.9465 70.7825 28.3018 70.4726 27.6422 70.1972C26.9907 69.9126 26.3236 69.6662 25.6551 69.428C24.3141 68.9638 22.9398 68.6022 21.544 68.3462C20.1515 68.09 18.7392 67.9567 17.3234 67.948C15.9135 67.948 14.4942 68.0549 13.1299 68.4061" fill="#184922"/>
<path d="M51.6467 41.302C51.787 42.8623 51.8509 44.428 51.8884 45.9931C51.9258 47.5581 51.9129 49.1245 51.8598 50.6855C51.7482 53.8095 51.4881 56.928 50.983 60.0016C50.7345 61.5387 50.4323 63.065 50.0476 64.5687C49.6772 66.0713 49.2197 67.551 48.6773 69.0004C48.5507 69.3646 48.405 69.7207 48.2538 70.0753C48.1027 70.43 47.97 70.7901 47.7977 71.1339L47.3069 72.1741L46.7623 73.1843C46.0244 74.5116 45.1614 75.7653 44.185 76.9285L44.1775 76.938C44.0432 77.0969 43.9775 77.3026 43.9948 77.5099C44.0122 77.7173 44.1112 77.9092 44.2701 78.0435C44.429 78.1779 44.6347 78.2436 44.842 78.2262C45.0494 78.2089 45.2413 78.1098 45.3756 77.951L45.3961 77.9264C46.3848 76.6452 47.249 75.2725 47.9768 73.827L48.5003 72.7432L48.9673 71.637C49.1313 71.2721 49.2525 70.8882 49.3948 70.5185C49.5371 70.1489 49.6712 69.7697 49.7862 69.3891C50.28 67.8805 50.6856 66.3444 51.0007 64.7886C51.3302 63.2399 51.5712 61.6776 51.7577 60.1119C52.1396 56.9804 52.2689 53.8312 52.2499 50.6909C52.2376 49.1207 52.1818 47.5522 52.0824 45.9856C51.9817 44.4198 51.8503 42.8541 51.6447 41.3027" fill="#184922"/>
<path d="M60.8574 105.776C60.5525 97.5872 49.48 79.5554 44.8496 77.857C40.4247 76.234 53.6313 87.4127 56.9731 114.234L60.8574 105.776Z" fill="#B07E4E"/>
<path d="M44.1823 78.6432C45.7044 81.8366 54.3588 93.2467 56.9743 114.234L60.8586 105.775C60.7592 103.165 59.5693 99.5552 57.8402 95.792C54.1498 87.751 48.0033 79.0142 44.8487 77.8569C43.8868 77.5036 43.7595 77.7576 44.1823 78.6432Z" fill="#B07E4E"/>
<path d="M44.1824 78.6433C45.7046 81.8367 54.359 93.2468 56.9744 114.234L60.8588 105.775C60.7594 103.165 59.5695 99.5553 57.8403 95.7921C57.2957 97.0597 56.504 97.8569 55.4053 96.7173C53.1928 94.4259 49.3466 82.2561 44.1824 78.6433Z" fill="#926034"/>
<path d="M56.9716 115.542C56.6535 115.541 56.3467 115.424 56.1087 115.213C55.8706 115.002 55.7176 114.711 55.6782 114.395C53.5222 97.0845 47.2988 86.5724 44.3096 81.5198C42.7609 78.9051 42.1823 77.9261 42.9992 76.9424C43.7385 76.0534 44.9169 76.4857 45.3035 76.6279C48.2927 77.7246 52.5876 83.592 55.606 88.7174C59.5694 95.4419 62.0221 101.8 62.1685 105.727C62.1772 105.9 62.1515 106.073 62.0928 106.236C62.0342 106.399 61.9437 106.548 61.8268 106.676C61.7098 106.804 61.5686 106.907 61.4114 106.98C61.2542 107.052 61.0842 107.093 60.9111 107.1C60.738 107.106 60.5654 107.078 60.4032 107.017C60.2411 106.956 60.0926 106.864 59.9664 106.745C59.8403 106.627 59.739 106.484 59.6683 106.326C59.5977 106.168 59.5592 105.997 59.5551 105.824C59.4257 102.364 57.0499 96.3194 53.3534 90.0469C51.1947 86.3845 49.1042 83.526 47.4125 81.6369C50.5603 87.0577 56.2514 97.8245 58.2753 114.071C58.3182 114.416 58.2226 114.763 58.0095 115.037C57.7965 115.311 57.4834 115.489 57.1391 115.532C57.0835 115.538 57.0276 115.542 56.9716 115.542Z" fill="#5D3519"/>
<path d="M40.11 180.472C39.6451 179.012 40.2067 177.7 40.9004 175.392C46.522 156.702 71.4375 69.9105 59.9498 37.1684C59.9498 37.1684 56.0103 31.158 47.8066 24.4186C46.1673 23.0728 46.5669 18.8194 48.3512 15.7431C50.1354 12.6668 52.9456 12.3775 54.3418 12.5865C55.6842 12.7866 58.9028 15.289 60.6279 17.0495C60.6279 17.0495 59.4828 10.4666 59.9471 9.32089C60.683 7.50124 75.2375 -5.86737 90.8076 6.4699C107.676 19.8365 101.617 137.851 85.6795 180.364C84.3514 183.904 82.3772 188.158 80.339 189.704C78.1443 191.37 70.8255 193.064 58.1724 189.993C46.8215 187.238 40.8711 182.845 40.1148 180.472" fill="#B07E4E"/>
<path d="M40.1094 180.472C40.8657 182.848 46.8162 187.238 58.167 189.992C70.8208 193.063 78.1389 191.37 80.3337 189.705C82.3759 188.158 84.3453 183.906 85.6742 180.362C86.634 177.806 87.5551 174.974 88.4387 171.911C96.1155 145.317 100.884 101.105 100.892 64.8968C100.896 35.9124 97.8521 12.0548 90.8029 6.4699C75.2335 -5.86736 60.6783 7.49988 59.9431 9.32157C59.4802 10.4659 60.6239 17.0488 60.6239 17.0488C58.8948 15.2877 55.6802 12.7866 54.3358 12.5851C52.9416 12.3761 50.1301 12.6661 48.3451 15.7424C46.5602 18.8187 46.1667 23.0728 47.8039 24.4186C56.0056 31.158 59.9472 37.1691 59.9472 37.1691C71.4376 69.9098 46.5221 156.701 40.8998 175.392C40.2068 177.699 39.6445 179.011 40.1094 180.472Z" fill="#B07E4E"/>
<path d="M60.3815 34.2574C60.3815 34.2574 62.0357 30.7345 60.0765 26.9618C58.4311 23.7922 50.222 17.048 49.0483 18.6723C48.4819 19.4565 47.5902 22.558 49.9966 24.0216C53.7564 26.3083 58.4897 31.1647 60.3822 34.2574" fill="#926034"/>
<path d="M56.8014 130.087C58.6483 152.784 73.0176 158.604 88.436 171.911C96.1128 145.317 100.881 101.105 100.889 64.8968C91.643 59.2895 80.2874 52.1845 77.4146 63.1493C73.8706 76.6854 81.9552 88.2997 82.1908 88.4774C81.9028 88.4093 69.8113 85.4276 67.9964 95.5647C65.9957 106.734 75.3274 116.292 71.1449 114.509C61.0282 110.197 55.6237 115.635 56.8042 130.087" fill="#926034"/>
<path d="M85.7519 57.2124C86.2025 52.4702 86.4537 47.7098 86.5946 42.9438C86.7213 38.1785 86.7165 33.4031 86.4728 28.631C86.3577 26.2443 86.178 23.8583 85.9173 21.4777C85.7995 20.2857 85.6287 19.0984 85.4714 17.9092C85.2801 16.724 85.1018 15.5361 84.8587 14.357L84.6879 13.472L84.4836 12.5905C84.3475 12.0036 84.2284 11.4114 84.0595 10.83C83.8907 10.2487 83.758 9.65777 83.583 9.07641L83.0316 7.33777L82.3849 5.62091C82.148 5.05453 81.8818 4.49699 81.6299 3.93401C81.5074 3.6515 81.3392 3.38601 81.1963 3.1103L80.7531 2.28659C80.4298 1.75016 80.0662 1.23075 79.7211 0.700439L78.0703 1.98502C79.4903 3.70392 80.5482 5.7843 81.4107 7.93683C82.2651 10.1023 82.9131 12.3665 83.4448 14.6599C83.7226 15.805 83.9383 16.9656 84.1671 18.125C84.3625 19.2904 84.5714 20.4545 84.7287 21.6281C85.0677 23.9717 85.3332 26.3276 85.5252 28.6957C85.9336 33.4269 86.1025 38.1826 86.1379 42.9404C86.1624 47.6982 86.0473 52.4607 85.7485 57.2137" fill="#5D3519"/>
<path d="M70.853 193C67.3887 193 63.0741 192.53 57.8595 191.265C46.1806 188.43 39.8264 183.889 38.8666 180.87C38.3424 179.224 38.7985 177.772 39.3683 175.932C39.4581 175.644 39.5528 175.339 39.6508 175.015C44.8245 157.798 70.0361 70.383 58.7731 37.7607C58.1604 36.8757 54.2692 31.4195 46.9791 25.4302C44.6482 23.5153 45.2221 18.5362 47.2207 15.0869C49.1425 11.7703 52.2583 10.9534 54.5341 11.2924C55.6593 11.4598 57.317 12.5361 58.7928 13.692C58.5253 11.564 58.413 9.62044 58.7323 8.83009C59.3762 7.23781 64.4438 2.56717 71.3445 0.741398C76.2494 -0.55203 83.7478 -0.791653 91.6167 5.44403C103.493 14.8541 102.452 66.8308 101.85 82.5371C100.336 122.061 94.4676 160.64 86.9011 180.823C85.577 184.356 83.5007 188.945 81.1269 190.747C79.7212 191.812 76.3624 193 70.853 193ZM41.3567 180.075C41.8428 181.601 46.8279 185.894 58.4763 188.721C71.5209 191.887 78.1078 189.751 79.5442 188.661C80.9806 187.57 82.7744 184.372 84.4504 179.904C91.9264 159.961 97.7298 121.703 99.2349 82.4357C99.9613 63.472 99.5529 46.5342 98.06 33.4502C96.0286 15.673 92.5507 9.52378 89.991 7.49582C84.6812 3.29013 78.9914 1.78499 73.073 3.02055C66.3866 4.41678 61.7296 8.87502 61.1639 9.80425C61.0189 10.598 61.428 14.0338 61.9127 16.8248C61.9606 17.0996 61.9194 17.3825 61.7952 17.6322C61.6709 17.8819 61.47 18.0853 61.2219 18.2127C60.9738 18.3401 60.6915 18.3849 60.4161 18.3405C60.1408 18.2961 59.8869 18.1648 59.6914 17.9658C57.7976 16.0365 54.9146 13.9956 54.1447 13.8813C53.6532 13.8077 51.1126 13.5831 49.4808 16.4001C47.8116 19.2803 47.779 22.7011 48.636 23.4084C56.899 30.1962 60.8773 36.199 61.0427 36.4516C61.1012 36.54 61.1483 36.6354 61.183 36.7355C66.1307 50.8359 65.1014 76.0918 58.1237 111.801C52.66 139.762 45.1342 165.853 42.1525 175.769C42.0525 176.102 41.9544 176.416 41.8625 176.712C41.3213 178.448 41.0933 179.251 41.3561 180.076L41.3567 180.075Z" fill="#5D3519"/>
<path d="M61.8717 34.0083C62.6205 32.7367 63.0344 31.2806 63.3094 29.8224C63.5739 28.3497 63.6934 26.8547 63.6661 25.3587C63.647 23.8425 63.4732 22.3323 63.1474 20.8514C62.807 19.3585 62.2992 17.8738 61.5014 16.4817L59.7484 17.6233C60.5504 18.6989 61.1698 19.9576 61.6389 21.2837C62.107 22.6309 62.4365 24.0223 62.6226 25.4363C62.8197 26.8687 62.8758 28.317 62.79 29.7604C62.692 31.2036 62.4626 32.6604 61.8717 34.0104" fill="#5D3519"/>
<path d="M59.0125 28.9122C58.3472 27.7566 57.6029 26.6482 56.7851 25.5949C55.9659 24.5328 55.0791 23.5245 54.1302 22.5765C53.1846 21.6146 52.1308 20.7555 51.0253 19.9556L50.1736 19.381C49.8864 19.1938 49.5807 19.0345 49.2839 18.8596L48.8339 18.6022C48.6821 18.5206 48.5221 18.4525 48.3663 18.3769L47.4214 17.9358L46.887 19.4096L47.7835 19.7268C47.9326 19.782 48.0851 19.8283 48.2321 19.8902L48.6692 20.0863C48.9585 20.2224 49.2574 20.3395 49.5426 20.4879L50.3928 20.9474C51.5226 21.5935 52.5961 22.3334 53.6019 23.1592C54.6203 23.9929 55.5838 24.8916 56.4863 25.8495C57.3978 26.8114 58.2419 27.8349 59.0125 28.9129" fill="#5D3519"/>
<path d="M78.2512 143.048C78.4961 144.15 78.5952 145.281 78.546 146.409C78.4901 147.528 78.2737 148.647 77.7876 149.641C77.5451 150.133 77.2282 150.586 76.8482 150.982C76.4863 151.375 76.0269 151.666 75.5166 151.825C75.0138 151.972 74.478 151.964 73.9802 151.8C73.4782 151.633 73.0201 151.356 72.6398 150.989C71.8603 150.257 71.3463 149.261 71.055 148.221C70.7636 147.182 70.6812 146.073 70.7398 144.982C70.8678 142.792 71.5567 140.639 72.765 138.828C73.3556 137.924 74.0861 137.12 74.9291 136.446C75.7603 135.791 76.7243 135.288 77.7059 135.171C78.1808 135.106 78.6642 135.154 79.1171 135.311C79.5617 135.475 79.9603 135.744 80.2792 136.094C80.4467 136.275 80.5973 136.47 80.7291 136.678C80.8653 136.902 81.0014 137.126 81.1144 137.365C81.3552 137.842 81.5585 138.338 81.7223 138.847C82.3895 140.904 82.6128 143.127 82.5461 145.314C82.4793 147.508 82.0769 149.679 81.3527 151.751C80.627 153.805 79.5208 155.713 78.0531 157.265C77.3179 158.033 76.4874 158.695 75.5731 159.136C74.6589 159.577 73.667 159.77 72.7092 159.636C71.7514 159.503 70.8371 159.052 70.0665 158.393C69.2959 157.734 68.6533 156.891 68.1434 155.967C67.1223 154.108 66.5988 151.955 66.3789 149.786C66.1488 147.613 66.2815 145.404 66.6423 143.231C66.8323 142.142 67.0794 141.067 67.3728 140C67.6764 138.935 68.0256 137.881 68.413 136.84C69.9903 132.678 72.1823 128.743 74.6595 125.007C75.8958 123.135 77.2171 121.317 78.5841 119.532C78.9245 119.084 79.2716 118.641 79.6195 118.2C79.7931 117.982 79.9674 117.758 80.1471 117.519L80.4139 117.167L80.6645 116.806C81.3202 115.846 81.9172 114.848 82.4521 113.816C83.5182 111.768 84.3977 109.648 85.184 107.503C85.9702 105.358 86.6544 103.181 87.2691 100.989C88.5067 96.606 89.4843 92.1627 90.2971 87.6943C91.1099 83.2258 91.76 78.7329 92.2781 74.2249C92.7961 69.717 93.1549 65.1934 93.3952 60.665C93.5137 58.4008 93.5983 56.1353 93.6491 53.8684C93.6945 51.6015 93.702 49.3346 93.6716 47.0677C93.6117 42.5352 93.3993 38.0042 92.9942 33.4908C92.6046 28.9785 91.9594 24.4919 91.0616 20.0527C91.8451 24.5123 92.3264 29.0148 92.6443 33.5241C92.9622 38.0334 93.0691 42.5563 93.033 47.0752C92.9453 56.1118 92.3316 65.1357 91.195 74.101C90.0581 83.055 88.4346 91.9653 85.958 100.62C85.3353 102.782 84.6364 104.915 83.8613 107.019C83.0764 109.118 82.2023 111.181 81.1648 113.143C80.6514 114.117 80.0796 115.06 79.4527 115.966L79.2172 116.301L78.9694 116.624C78.8087 116.835 78.6338 117.057 78.4541 117.281C78.0987 117.727 77.7447 118.172 77.3975 118.625C76.002 120.426 74.6623 122.274 73.3988 124.176C72.1353 126.079 70.9379 128.03 69.8589 130.049C68.7631 132.069 67.8007 134.158 66.9779 136.303C66.574 137.383 66.211 138.478 65.8887 139.589C65.5804 140.702 65.319 141.832 65.1168 142.975C64.7328 145.263 64.5851 147.613 64.8274 149.946C64.9381 151.116 65.1453 152.276 65.4469 153.412C65.7532 154.567 66.199 155.681 66.7744 156.729C67.3612 157.78 68.1059 158.771 69.0644 159.581C69.5473 159.991 70.0809 160.337 70.652 160.611C71.2363 160.887 71.8593 161.073 72.4995 161.162C73.142 161.246 73.7936 161.229 74.4308 161.111C75.0555 160.993 75.6613 160.791 76.2321 160.511C77.3615 159.963 78.3186 159.177 79.143 158.311C80.789 156.568 81.9572 154.447 82.7162 152.232C83.4634 150.014 83.8663 147.695 83.911 145.356C83.9559 143.029 83.6986 140.679 82.9191 138.44C82.7253 137.875 82.4879 137.326 82.2091 136.798C82.0729 136.529 81.9102 136.271 81.7475 136.013C81.5707 135.746 81.3697 135.495 81.1471 135.265C80.6899 134.784 80.1236 134.42 79.4963 134.205C78.8707 134 78.2057 133.944 77.5548 134.043C76.2791 134.229 75.1796 134.859 74.2531 135.608C73.3427 136.374 72.5602 137.28 71.9352 138.293C70.6937 140.294 70.0033 142.589 69.9338 144.943C69.8889 146.119 70.0452 147.293 70.396 148.415C70.7568 149.532 71.3531 150.607 72.2613 151.4C72.7145 151.806 73.2528 152.104 73.8365 152.274C74.4297 152.444 75.0603 152.431 75.646 152.236C76.2164 152.036 76.7244 151.69 77.1191 151.232C77.5082 150.796 77.828 150.302 78.0674 149.769C78.5439 148.706 78.7141 147.545 78.7107 146.408C78.7045 145.271 78.5491 144.139 78.2485 143.043" fill="#5D3519"/>
<path d="M74.52 192.011C75.3555 190.795 76.0804 189.506 76.6861 188.161C77.2793 186.809 77.7454 185.404 78.0783 183.965C78.759 181.095 78.9047 178.179 79.1416 175.368C79.2662 173.962 79.4078 172.573 79.6733 171.223C79.7352 170.882 79.8135 170.55 79.8911 170.217L80.0164 169.72C80.064 169.57 80.1055 169.426 80.1573 169.278C80.3914 168.664 80.6832 168.074 81.0286 167.516C81.7325 166.353 82.5787 165.219 83.4215 164.073C84.2643 162.928 85.1234 161.768 85.9233 160.564C86.7231 159.359 87.489 158.121 88.1779 156.833C88.8672 155.542 89.4687 154.207 89.9785 152.835C90.4881 151.459 90.8891 150.045 91.178 148.606C91.4622 147.16 91.6078 145.69 91.613 144.216C91.6177 141.281 91.1678 138.405 90.581 135.595C89.9941 132.785 89.2474 130.023 88.668 127.26C88.3889 125.881 88.1357 124.49 88.1119 123.131C88.1119 121.759 88.2964 120.349 88.4938 118.952C88.9124 116.153 89.4768 113.361 90.0547 110.574C91.2229 105.001 92.4864 99.4388 93.6471 93.8532C94.8077 88.2677 95.8752 82.6603 96.6662 77.008C97.0549 74.1816 97.3715 71.3435 97.5369 68.4939C97.7023 65.6442 97.7118 62.7796 97.3429 59.9504C97.654 62.7865 97.5736 65.6456 97.3612 68.4823C97.1489 71.319 96.7812 74.1475 96.3401 76.9604C95.4585 82.5882 94.2781 88.1635 93.046 93.7253C91.8138 99.287 90.47 104.827 89.2222 110.396C88.6041 113.181 87.9968 115.972 87.5353 118.806C87.3161 120.226 87.1057 121.648 87.0839 123.129C87.0764 124.627 87.3052 126.056 87.5605 127.475C88.0921 130.304 88.7858 133.066 89.2984 135.848C89.811 138.63 90.1909 141.424 90.1283 144.195C90.0956 145.573 89.9301 146.945 89.634 148.292C89.3458 149.646 88.9518 150.975 88.4557 152.268C87.4706 154.86 86.0846 157.291 84.4944 159.602C83.6979 160.759 82.8571 161.892 82.0137 163.043C81.1702 164.194 80.3064 165.349 79.5351 166.627C79.1323 167.283 78.7931 167.976 78.5221 168.696C78.454 168.884 78.3989 169.082 78.341 169.273L78.2049 169.813C78.1212 170.173 78.0374 170.534 77.9721 170.896C77.6889 172.344 77.5412 173.795 77.4275 175.228C77.2083 178.093 77.0803 180.9 76.4608 183.595C76.1588 184.936 75.7347 186.248 75.1939 187.512C74.6442 188.775 73.9821 189.986 73.2157 191.13L74.52 192.011Z" fill="#5D3519"/>
<path d="M55.6012 189.337C56.734 185.687 57.6525 181.974 58.3521 178.216C58.4453 177.747 58.523 177.276 58.5999 176.804L58.8307 175.39C58.9614 174.443 59.1077 173.499 59.2126 172.551C59.4481 170.656 59.6135 168.755 59.7449 166.857C60.0104 163.058 60.1009 159.27 60.3058 155.512C60.4079 153.634 60.5346 151.762 60.7143 149.898C60.894 148.034 61.15 146.182 61.457 144.339C62.0942 140.655 63.012 137.025 64.2025 133.48L64.6518 132.15L65.1358 130.832C65.3012 130.394 65.453 129.952 65.6293 129.517L66.1521 128.212C66.4925 127.339 66.8805 126.485 67.2495 125.625L67.8172 124.317C68.0113 123.875 68.1849 123.427 68.3618 122.981C69.7424 119.4 70.8085 115.747 71.782 112.075C72.7554 108.403 73.5989 104.703 74.3688 100.991C74.7577 99.1353 75.126 97.276 75.4737 95.413C75.8351 93.5525 76.1701 91.6872 76.5173 89.824C76.8644 87.9608 77.2028 86.0955 77.5234 84.2275C77.844 82.3596 78.1429 80.4834 78.4315 78.612C79.0013 74.8631 79.4397 71.0938 79.7699 67.3156C80.1001 63.5375 80.3887 59.7545 80.5793 55.9661C80.7699 52.1777 80.8673 48.3846 80.8795 44.5908C80.8659 40.7969 80.7631 37.0024 80.5133 33.2161C80.2634 29.4297 79.889 25.6495 79.2559 21.9081C78.6228 18.1667 77.793 14.4525 76.5009 10.8936C77.5649 14.5247 78.2225 18.2504 78.6732 21.9898C79.108 25.7362 79.3737 29.4928 79.4704 33.2597C79.58 37.0263 79.5384 40.7963 79.4186 44.5601C79.2988 48.324 79.098 52.0899 78.8059 55.8477C78.5296 59.6059 78.1794 63.358 77.7556 67.1039L76.4213 78.3309C75.9624 82.075 75.4832 85.8137 74.9005 89.5401C74.3177 93.2666 73.607 96.9705 72.8255 100.659C72.044 104.347 71.1917 108.018 70.2278 111.656C69.2638 115.293 68.1855 118.902 66.8383 122.376C66.6641 122.806 66.498 123.239 66.3073 123.662L65.7444 124.956C65.3665 125.83 64.9717 126.697 64.6225 127.585L64.0833 128.909C63.9029 129.351 63.743 129.8 63.5734 130.246L63.0738 131.587L62.6081 132.941C61.3718 136.562 60.4137 140.271 59.7422 144.038C59.4177 145.923 59.1549 147.815 58.9539 149.715C58.7571 151.612 58.6189 153.512 58.5052 155.408C58.2847 159.199 58.1649 162.972 57.8653 166.714C57.7183 168.586 57.5386 170.452 57.2908 172.306C57.1798 173.236 57.0273 174.158 56.8905 175.083L56.6522 176.465C56.5733 176.926 56.4929 177.386 56.397 177.844C55.6787 181.516 54.7467 185.143 53.6059 188.706L55.6012 189.337Z" fill="#5D3519"/>
<path d="M62.0698 112.946C64.1999 104.709 65.9085 96.3572 67.2843 87.9506C67.961 83.7454 68.5487 79.5247 69.0475 75.2886C69.5281 71.0543 69.9114 66.8085 70.1973 62.5511C70.7146 54.0417 70.8229 45.4751 70.0414 36.9548C69.6486 32.6987 69.0284 28.457 68.0835 24.2853C67.6179 22.1977 67.057 20.1359 66.4007 18.1C66.2503 17.5881 66.074 17.0836 65.8868 16.5833L65.3381 15.0836C65.1652 14.5792 64.9351 14.0951 64.7308 13.603L64.1018 12.1353C66.7656 20.2308 67.9821 28.6469 68.5989 37.0766C68.7425 39.187 68.8596 41.2973 68.9331 43.4131C69.0066 45.5289 69.0277 47.6446 69.0482 49.7618C69.0686 53.9961 68.9372 58.2337 68.6976 62.4653C68.4752 66.6991 68.15 70.927 67.7221 75.149C67.3136 79.3724 66.8219 83.5881 66.2469 87.7961C65.1209 96.2136 63.7029 104.594 62.0698 112.944" fill="#5D3519"/>
<path d="M45.8584 185.481C46.5748 184.222 47.1936 182.911 47.7094 181.557C48.2122 180.212 48.6559 178.853 49.0403 177.481C49.8272 174.741 50.3882 171.967 50.9226 169.194C51.4399 166.419 51.8953 163.641 52.3433 160.867C52.7912 158.093 53.2133 155.319 53.6707 152.553C54.5557 147.017 55.5728 141.511 56.775 136.045C57.3768 133.312 58.0153 130.585 58.7315 127.876C59.4476 125.166 60.2141 122.469 61.0283 119.775C58.724 124.913 56.9254 130.282 55.4829 135.732C55.2977 136.413 55.1146 137.094 54.9526 137.779C54.7906 138.465 54.6122 139.148 54.4563 139.836L53.9798 141.896L53.5346 143.963C52.9621 146.722 52.4365 149.489 51.9369 152.258C51.4481 155.03 50.9838 157.804 50.5216 160.572C50.0594 163.34 49.606 166.106 49.092 168.854C48.578 171.603 48.0328 174.337 47.3316 177.017C46.9826 178.357 46.5794 179.675 46.1219 180.971C45.6454 182.254 45.1239 183.518 44.4881 184.71L45.8584 185.481Z" fill="#5D3519"/>
<path d="M76.2553 41.2979C76.3023 38.0004 76.2424 34.6994 76.1192 31.3998C75.9959 28.1002 75.7788 24.8006 75.4541 21.5058C75.1293 18.2109 74.6896 14.9202 74.0333 11.6498C73.6984 10.016 73.3097 8.3863 72.8216 6.77088C72.3335 5.15545 71.7446 3.55365 70.9325 2.00562L69.1067 3.02674C69.9005 4.36102 70.5363 5.83621 71.0809 7.34952C71.6255 8.86283 72.0891 10.4245 72.5003 12.0018C73.3104 15.1605 73.9169 18.3893 74.4132 21.6358C74.9095 24.8823 75.2914 28.1553 75.5936 31.4345C75.8959 34.7137 76.1273 38.0038 76.2546 41.2986" fill="#5D3519"/>
<path d="M68.251 166.319C68.6513 167.321 68.9569 168.358 69.1639 169.417C69.377 170.468 69.5095 171.534 69.5601 172.606C69.6114 173.671 69.5784 174.738 69.4614 175.798C69.3429 176.855 69.1523 177.901 68.8228 178.887C68.1638 180.876 67.1039 182.764 66.2469 184.796C65.8066 185.817 65.4203 186.861 65.0896 187.922C64.7684 189 64.512 190.096 64.3217 191.205L66.398 191.459C66.4853 190.423 66.6338 189.394 66.8425 188.376C67.0678 187.349 67.3469 186.335 67.6785 185.337C68.0086 184.328 68.3885 183.325 68.7629 182.302C69.1373 181.28 69.5015 180.235 69.7561 179.147C69.9989 178.064 70.1384 176.96 70.1728 175.851C70.214 174.754 70.1685 173.655 70.0366 172.566C69.906 171.483 69.6926 170.411 69.3981 169.361C69.1012 168.316 68.7391 167.287 68.2544 166.319" fill="#5D3519"/>
<g opacity="0.3">
<path d="M68.1966 70.3808C69.8419 72.3693 74.5024 73.308 77.5038 70.5979C81.4842 67.0043 77.3622 59.3104 76.514 55.9897C75.7359 52.9454 79.1961 47.9071 76.5079 45.9888C73.7808 44.0418 64.6355 44.161 65.4116 49.7921C65.9256 53.5158 68.4273 56.1293 67.9542 59.4847C67.4811 62.8401 66.2796 68.0622 68.1959 70.3808" fill="white"/>
</g>
<g opacity="0.3">
<path d="M68.4219 42.7415C70.5078 44.1608 75.5453 42.6775 77.1975 41.1315C80.0921 38.4235 78.8994 33.8706 76.0559 31.4056C73.6801 29.3456 68.9434 29.9168 67.3749 32.9209C66.0325 35.4928 66.7555 41.6066 68.4219 42.7415Z" fill="white"/>
</g>
<path d="M104.07 104.415C110.849 110.528 117.957 114.228 124.43 116.453L128.867 114.659C128.867 114.659 118.695 113.18 104.07 104.415Z" fill="#A54E20"/>
<path d="M87.5953 135.526C90.0119 142.665 119.318 172.376 131.415 153.443C141.616 137.485 140.221 109.306 138.867 106.387C135.864 99.9242 105.932 76.2865 102.971 93.2522C101.133 103.792 97.9788 111.073 94.9678 116.571C92.2448 121.541 89.6382 125.062 88.2202 128.221C87.1085 130.702 86.7266 132.959 87.5953 135.526Z" fill="#B5CEDC"/>
<path d="M87.5938 135.525C87.7624 135.997 87.9724 136.453 88.2215 136.887C93.1576 145.765 119.974 171.347 131.414 153.446C141.614 137.488 140.221 109.308 138.865 106.389C135.863 99.9269 105.931 76.2892 102.971 93.2549C101.569 101.288 99.4028 107.429 97.1162 112.33C96.4048 113.858 95.6805 115.267 94.9637 116.573C92.2406 121.547 89.6334 125.064 88.216 128.224C87.1044 130.704 86.7225 132.962 87.5904 135.528" fill="#B5CEDC"/>
<path d="M87.5939 135.525C87.7624 135.997 87.9725 136.452 88.2215 136.887C93.6465 141.073 98.5118 144.128 100.352 140.231C102.53 135.614 101.312 128.819 108.329 123.893C111.69 121.534 104.289 116.25 97.1196 112.327C96.4083 113.856 95.6839 115.265 94.9671 116.571C92.2441 121.545 89.6368 125.062 88.2195 128.222C87.1078 130.702 86.7259 132.96 87.5939 135.526" fill="#F9FCFF"/>
<path d="M100.611 133.751C100.611 133.751 97.5928 126.232 104.069 126.671C108.076 126.94 102.212 121.917 94.9672 116.573C92.2441 121.546 89.6369 125.064 88.2195 128.223L100.611 133.751Z" fill="#F9FCFF"/>
<path d="M100.611 133.751C100.611 133.751 97.5928 126.232 104.069 126.671C108.076 126.94 102.212 121.917 94.9672 116.573C92.2441 121.546 89.6369 125.064 88.2195 128.223L100.611 133.751Z" fill="#CEE1E8"/>
<path d="M120.569 160.962C119.875 160.961 119.181 160.918 118.492 160.833C104.993 159.186 88.3836 141.936 86.3564 135.944C84.6776 130.986 87.0637 127.125 90.3667 121.781C94.07 115.791 99.1429 107.581 101.683 93.0256C102.591 87.8273 105.768 86.3419 108.274 86.0138C114.365 85.2105 122.702 90.3134 127.131 93.4265C133.291 97.7588 138.726 102.979 140.054 105.838C140.972 107.816 141.497 116.227 140.78 125.133C140.104 133.533 138.125 145.386 132.52 154.15C129.651 158.634 125.548 160.962 120.569 160.962ZM109.612 88.5435C109.279 88.5425 108.946 88.5635 108.616 88.6061C106.165 88.9295 104.784 90.4761 104.259 93.4762C101.631 108.529 96.4056 116.984 92.59 123.157C89.4463 128.243 87.5524 131.312 88.8316 135.104C89.6124 137.409 93.88 142.822 99.6712 147.888C103.646 151.365 111.417 157.332 118.807 158.235C123.797 158.845 127.56 157.046 130.312 152.739C135.622 144.429 137.516 133.025 138.168 124.921C138.934 115.405 138.168 108.003 137.677 106.939C135.524 102.298 118.557 88.5435 109.612 88.5435Z" fill="#262F6A"/>
<path d="M58.0268 124.981C58.6518 128.982 60.9663 133.262 63.0508 135.821C65.978 139.414 73.0633 144.351 76.2696 147.754C79.9525 151.663 81.331 158.23 88.5184 163.533C97.4839 170.144 112.283 170.912 123.571 162.067C129.161 157.687 133.886 150.955 136.622 141.408L102.294 137.922C102.294 137.922 98.9802 122.124 77.2533 121.136C75.6474 119.106 72.8414 115.063 68.4417 113.939C66.3259 113.401 64.0086 113.57 61.709 114.946C60.2556 115.816 59.1828 117.198 58.5449 118.884C57.8723 120.658 57.679 122.772 58.0268 124.981Z" fill="#B5CEDC"/>
<path d="M58.0268 124.981C58.6518 128.982 60.9663 133.262 63.0508 135.821C65.978 139.414 73.0633 144.351 76.2696 147.754C79.9525 151.663 81.331 158.23 88.5184 163.533C97.4839 170.144 112.283 170.912 123.571 162.067C117.158 165.236 108.317 167.897 99.859 164.737C80.7919 157.616 86.7205 145.206 76.1444 140.172C66.9876 135.815 58.9758 129.831 58.5449 118.884C57.8723 120.658 57.679 122.772 58.0268 124.981Z" fill="#92B3C1"/>
<path d="M102.296 137.922C102.152 136.566 101.735 135.246 101.218 133.973C100.952 133.335 100.653 132.711 100.323 132.104C99.9872 131.499 99.6241 130.907 99.2334 130.33C97.6255 128.022 95.5841 126.049 93.223 124.52C92.6335 124.136 92.0276 123.779 91.4109 123.44C90.7941 123.102 90.1549 122.808 89.5136 122.523C88.8676 122.25 88.2202 121.983 87.5544 121.757C86.8886 121.53 86.2201 121.33 85.5455 121.148C82.8569 120.442 80.0881 120.088 77.3084 120.096L78.0817 120.492C77.19 119.347 76.2532 118.109 75.1749 116.996C74.0966 115.882 72.8767 114.838 71.4642 114.045C70.0516 113.253 68.4525 112.728 66.7915 112.631C65.1205 112.535 63.4539 112.88 61.9581 113.631C61.773 113.722 61.5905 113.816 61.4135 113.919C61.2365 114.023 61.0555 114.127 60.8744 114.245C60.5189 114.482 60.1828 114.747 59.8689 115.037C59.2499 115.612 58.7193 116.276 58.2943 117.006C57.4495 118.45 57.0118 120.063 56.8702 121.664C56.7286 123.265 56.8858 124.882 57.2494 126.406C57.3304 126.791 57.4448 127.164 57.5455 127.541C57.6653 127.911 57.7722 128.286 57.9077 128.649C58.1595 129.382 58.4591 130.094 58.7749 130.798C59.414 132.199 60.1652 133.547 61.0214 134.827C61.4545 135.474 61.9226 136.098 62.4238 136.694C62.6804 136.994 62.9391 137.292 63.2087 137.566L63.609 137.985L64.0174 138.386C66.2108 140.505 68.5396 142.361 70.81 144.26C71.9448 145.205 73.0714 146.153 74.1381 147.132L74.921 147.875C75.1634 148.128 75.4295 148.379 75.6528 148.632C76.1164 149.149 76.5449 149.697 76.9354 150.271C77.7373 151.438 78.4541 152.717 79.2029 154.004C79.9518 155.291 80.7312 156.591 81.6046 157.849C82.4807 159.115 83.4564 160.308 84.5223 161.418C85.5946 162.53 86.7617 163.546 88.0105 164.455C90.517 166.288 93.3592 167.605 96.3116 168.464C102.23 170.171 108.633 170.008 114.467 168.102C117.389 167.15 120.157 165.776 122.683 164.024C125.197 162.27 127.462 160.183 129.415 157.821C131.368 155.472 133.012 152.883 134.369 150.167C135.726 147.452 136.786 144.598 137.631 141.698C137.669 141.566 137.681 141.428 137.666 141.291C137.651 141.155 137.609 141.022 137.543 140.902C137.477 140.781 137.387 140.675 137.28 140.589C137.173 140.503 137.05 140.439 136.918 140.401C136.786 140.363 136.648 140.351 136.511 140.366C136.374 140.381 136.242 140.423 136.122 140.489C136.001 140.555 135.895 140.644 135.809 140.752C135.723 140.859 135.659 140.982 135.621 141.114V141.122C134.808 143.913 133.799 146.648 132.498 149.234C131.197 151.819 129.648 154.271 127.807 156.485C125.975 158.701 123.851 160.66 121.493 162.306C119.134 163.942 116.549 165.225 113.821 166.114C108.375 167.895 102.39 168.042 96.8957 166.455C94.1556 165.658 91.5327 164.438 89.2454 162.765C86.937 161.089 84.9566 159.013 83.3228 156.653C82.5012 155.473 81.7571 154.23 81.0144 152.953C80.2717 151.677 79.5392 150.367 78.6611 149.085C78.2173 148.433 77.7304 147.812 77.2036 147.225C76.9313 146.923 76.659 146.665 76.3867 146.383L75.5548 145.595C74.4363 144.568 73.292 143.605 72.151 142.652C69.8705 140.746 67.556 138.896 65.4797 136.89L65.0944 136.513L64.7268 136.128C64.4749 135.873 64.2502 135.61 64.0235 135.347C63.5703 134.808 63.1469 134.244 62.7553 133.659C61.9622 132.473 61.2661 131.226 60.6736 129.928C59.5061 127.342 58.6994 124.556 58.9492 121.846C59.067 120.499 59.4366 119.183 60.0929 118.063C60.4148 117.509 60.8164 117.006 61.2849 116.569C61.5161 116.356 61.7635 116.161 62.0248 115.986C62.1555 115.902 62.289 115.818 62.4387 115.737C62.5885 115.657 62.7294 115.577 62.8778 115.505C64.0478 114.913 65.3533 114.641 66.6621 114.716C67.9664 114.793 69.2606 115.204 70.4328 115.867C71.6051 116.53 72.6793 117.424 73.6575 118.441C74.6358 119.458 75.5031 120.592 76.4323 121.787C76.522 121.902 76.6351 121.997 76.7642 122.065C76.8933 122.133 77.0354 122.173 77.1811 122.181H77.2049C79.8258 122.431 82.4134 122.816 84.9206 123.475C85.5462 123.641 86.167 123.823 86.779 124.029C87.3958 124.221 87.9996 124.448 88.6 124.683C89.7942 125.163 90.9542 125.724 92.0719 126.363C94.3142 127.658 96.3364 129.302 98.0625 131.232C98.5 131.715 98.9161 132.22 99.311 132.745C99.7085 133.267 100.089 133.807 100.442 134.366C101.169 135.489 101.787 136.678 102.288 137.919" fill="#262F6A"/>
<path d="M70.4165 117.218C69.9753 116.696 69.4907 116.213 68.9679 115.773C68.4346 115.323 67.8654 114.916 67.266 114.558C66.6473 114.187 65.991 113.883 65.3081 113.65C64.6131 113.401 63.8677 113.272 63.0998 113.197L63.1937 115.285C63.7656 115.195 64.3687 115.13 64.9841 115.185C65.615 115.228 66.2394 115.339 66.8466 115.516C68.1212 115.884 69.3267 116.459 70.4151 117.218" fill="#262F6A"/>
<path d="M65.4988 120.564C65.1548 120.025 64.7488 119.528 64.2891 119.084C63.8146 118.62 63.2822 118.219 62.705 117.891C62.0951 117.544 61.4297 117.304 60.7383 117.183C60.5599 117.156 60.3802 117.127 60.1985 117.104L59.6505 117.091C59.5579 117.091 59.4646 117.084 59.3727 117.091L59.1004 117.119L58.5463 117.183L59.1501 119.185L59.5068 119.036L59.6886 118.959C59.7499 118.936 59.8125 118.925 59.8751 118.907L60.2584 118.803L60.6539 118.75C61.2103 118.689 61.773 118.727 62.3163 118.861C62.8957 119.003 63.4544 119.219 63.9787 119.504C64.5254 119.797 65.0361 120.153 65.5002 120.565" fill="#262F6A"/>
<path d="M110.901 164.765C109.68 168.515 112.144 176.6 121.883 177.339C131.835 178.096 135.231 169.318 133.216 164.419C129.711 155.91 118.654 159.332 116.501 160.858L110.901 164.765Z" fill="#B5CEDC"/>
<path d="M123.069 175.218C127.094 175.218 129.205 173.33 130.267 171.746C131.607 169.746 131.986 167.132 131.209 165.244C130.045 162.416 127.779 161.042 124.28 161.042C121.226 161.042 118.414 162.159 117.756 162.626L112.827 166.067C112.648 167.412 113.018 169.381 114.166 171.094C115.289 172.769 117.569 174.838 122.05 175.179C122.395 175.205 122.739 175.218 123.071 175.218" fill="#B5CEDC"/>
<path d="M112.833 167.56C112.999 168.825 113.455 170.034 114.165 171.094C115.288 172.769 117.569 174.838 122.047 175.179C122.395 175.203 122.736 175.217 123.068 175.217C127.091 175.217 129.204 173.33 130.265 171.745C130.92 170.763 131.35 169.649 131.526 168.482C129.896 170.057 127.329 171.45 123.35 171.45C122.911 171.45 122.455 171.433 121.997 171.398C117.418 171.049 114.577 169.341 112.831 167.558" fill="#92B3C1"/>
<path d="M110.901 164.765C110.332 165.888 110.205 167.216 110.305 168.5C110.422 169.808 110.795 171.081 111.405 172.244C111.708 172.836 112.07 173.396 112.484 173.917C112.688 174.183 112.913 174.427 113.137 174.677C113.373 174.913 113.608 175.154 113.866 175.368C114.872 176.259 116.053 176.938 117.289 177.433C118.525 177.929 119.825 178.237 121.124 178.407C122.441 178.591 123.776 178.608 125.097 178.458C126.459 178.294 127.782 177.9 129.012 177.294C130.258 176.666 131.37 175.804 132.289 174.754C134.125 172.634 135.092 169.898 134.994 167.095C134.969 166.39 134.862 165.689 134.675 165.008C134.581 164.66 134.463 164.319 134.322 163.987C134.186 163.671 134.04 163.364 133.877 163.061C133.551 162.449 133.163 161.871 132.72 161.338C132.267 160.802 131.756 160.32 131.195 159.899C130.081 159.078 128.804 158.507 127.451 158.223C126.152 157.957 124.818 157.902 123.502 158.061C122.226 158.207 120.973 158.512 119.773 158.97C119.18 159.196 118.603 159.461 118.045 159.763C117.496 160.074 116.949 160.41 116.503 160.852C117.07 160.617 117.657 160.433 118.256 160.303C118.845 160.155 119.444 160.054 120.037 159.963C121.211 159.782 122.397 159.7 123.584 159.718C125.907 159.765 128.195 160.281 129.847 161.634C130.669 162.318 131.335 163.17 131.799 164.134C131.918 164.377 132.027 164.629 132.127 164.883C132.217 165.121 132.293 165.365 132.351 165.613C132.47 166.124 132.534 166.645 132.542 167.17C132.557 169.339 131.786 171.44 130.372 173.085C129.67 173.895 128.822 174.566 127.873 175.063C126.9 175.565 125.851 175.902 124.768 176.062C123.648 176.233 122.509 176.26 121.382 176.143C120.239 176.036 119.111 175.819 118.053 175.431C115.929 174.682 114.057 173.315 112.747 171.439C112.08 170.489 111.571 169.437 111.24 168.325C111.066 167.757 110.947 167.175 110.885 166.584C110.816 165.979 110.822 165.367 110.904 164.763" fill="#262F6A"/>
<path d="M81.9171 120.553C81.5611 120.546 81.2697 120.56 80.9518 120.576C80.6339 120.593 80.3323 120.619 80.0253 120.649C79.4113 120.71 78.8024 120.797 78.1988 120.909C76.9927 121.128 75.8101 121.461 74.6671 121.904C73.5296 122.342 72.4552 122.929 71.4716 123.649C70.5055 124.362 69.6697 125.236 69.0012 126.233C69.7883 125.365 70.7194 124.64 71.7535 124.09C72.772 123.553 73.857 123.153 74.9802 122.901C76.0953 122.649 77.2318 122.504 78.3745 122.467C78.9436 122.447 79.5134 122.451 80.0764 122.477C80.3589 122.492 80.6414 122.509 80.9198 122.536C81.1982 122.563 81.4916 122.594 81.7238 122.635L81.9171 120.553Z" fill="#262F6A"/>
<g opacity="0.4">
<path d="M96.3382 135.336C98.7406 134.395 88.6689 121.554 77.8449 125.594C76.3643 126.147 81.1724 127.392 85.7464 129.555C91.4082 132.233 95.4233 135.694 96.3382 135.336Z" fill="white"/>
</g>
<path d="M153.653 53.4169C156.08 41.5888 181.495 28.114 196.943 36.7385C200.279 38.601 200.08 41.5956 197.147 43.3295C217.59 54.4775 212.653 79.9472 205.344 86.9235C200.554 91.4954 197.84 88.9733 197.019 87.5777C193.906 91.3218 182.519 95.921 173.129 90.8208C173.129 90.8208 152.238 60.3231 153.654 53.4203" fill="#B5CEDC"/>
<path d="M153.653 53.4169C156.08 41.5888 181.495 28.114 196.943 36.7385C200.279 38.601 200.08 41.5956 197.147 43.3295C217.59 54.4775 212.653 79.9472 205.344 86.9235C200.554 91.4954 197.84 88.9733 197.019 87.5777C193.906 91.3218 182.519 95.921 173.129 90.8208C173.129 90.8208 152.238 60.3231 153.654 53.4203" fill="#B5CEDC"/>
<g opacity="0.7">
<path d="M157.276 46.6825C165.897 38.2412 181.848 31.9238 193.372 37.4093C196.071 38.6946 196.656 40.8131 195.434 42.5912C194.884 43.3925 195.097 44.4932 195.949 44.9623C214.907 55.403 211.625 79.7521 205.003 86.9483C204.449 87.5625 203.838 88.1225 203.177 88.6209C203.958 88.1326 204.685 87.5621 205.345 86.919C212.654 79.9434 217.59 54.4724 197.149 43.3251C200.083 41.5912 200.284 38.5979 196.944 36.7333C184.418 29.7461 165.346 37.278 157.277 46.6819" fill="white"/>
</g>
<path d="M178.761 90.1021C185.909 91.5671 193.134 88.1436 195.002 85.8978L197.384 83.0297L199.276 86.2443C199.309 86.3008 199.612 86.795 200.093 86.8944C200.377 86.9522 201.466 86.9897 203.527 85.023C204.796 83.8133 206.138 81.6873 207.184 78.901C207.832 77.259 209.312 73.3399 201.517 74.9186C194.019 76.4373 187.017 73.7089 179.246 69.3779C172.401 65.5617 164.798 61.3233 157.423 58.6704C160.526 66.4541 168.878 79.9269 174.918 88.7944C176.137 89.3921 177.427 89.8316 178.757 90.1021" fill="#92B3C1"/>
<path d="M182.328 94.3837C179.077 94.3837 175.689 93.6982 172.503 91.967C172.322 91.8687 172.166 91.7287 172.049 91.5586C171.996 91.4816 166.744 83.8021 161.735 75.3764C151.388 57.9662 152.128 54.3412 152.372 53.1546C153.597 47.1756 160.208 40.6445 169.208 36.5157C179.527 31.7831 190.133 31.438 197.58 35.5933C199.573 36.705 200.682 38.2809 200.704 40.0297C200.718 41.1509 200.271 42.2299 199.438 43.1496C208.875 49.0184 211.879 57.5584 212.713 63.852C214.074 74.1456 210.398 83.909 206.245 87.8682C203.907 90.0997 201.676 91.0854 199.616 90.7955C198.608 90.6508 197.668 90.1992 196.926 89.502C194.047 91.967 188.43 94.3837 182.328 94.3837ZM174.023 89.8124C182.973 94.4661 193.462 89.8009 196.011 86.7368C196.145 86.5756 196.316 86.449 196.51 86.3677C196.703 86.2864 196.913 86.2528 197.122 86.2698C197.331 86.2868 197.533 86.3538 197.711 86.4651C197.888 86.5765 198.037 86.729 198.143 86.9097C198.3 87.1759 198.892 88.0541 199.975 88.2031C201.19 88.3727 202.732 87.6 204.439 85.971C208.173 82.4072 211.315 73.2865 210.116 64.1917C209.318 58.1432 206.31 49.8121 196.52 44.473C196.317 44.3622 196.147 44.1996 196.027 44.0018C195.907 43.8039 195.842 43.5779 195.838 43.3466C195.834 43.1154 195.891 42.8872 196.004 42.6853C196.117 42.4834 196.281 42.315 196.48 42.1973C197.511 41.5846 198.098 40.8085 198.088 40.059C198.078 39.287 197.445 38.5117 196.305 37.8752C189.584 34.1249 179.862 34.5048 170.3 38.8915C162.159 42.6254 155.984 48.5677 154.936 53.6775C153.991 58.2766 166.066 78.1593 174.027 89.8124H174.023Z" fill="#262F6A"/>
<path d="M160.713 64.0772C160.029 74.9297 163.622 78.6303 173.326 83.5528C183.973 88.9525 197.068 84.2233 199.964 70.1018C202.15 59.4494 194.707 48.0822 183.911 46.7146C174.395 45.5097 161.519 51.2954 160.713 64.0738" fill="#F19294"/>
<path d="M160.713 64.078C160.032 74.9299 163.622 78.6311 173.326 83.5536C182.448 88.1827 193.368 85.3706 198.13 75.5888C195.475 77.0661 186.999 81.3133 184.353 76.8972C181.412 71.9856 187.198 68.8045 185.97 64.9841C184.751 61.1882 173.362 64.1583 181.463 46.5602C172.327 46.5255 161.449 52.3657 160.713 64.0787" fill="#EE7B7E"/>
<path d="M200.105 63.2604C199.905 60.8778 199.22 58.5197 198.155 56.3297C197.631 55.2289 196.968 54.1989 196.258 53.1982C196.081 52.9477 195.879 52.7156 195.686 52.476C195.494 52.2363 195.302 51.9947 195.093 51.7687L194.452 51.1015L194.131 50.7673C194.024 50.6556 193.903 50.5596 193.79 50.4548C191.954 48.7553 189.798 47.4393 187.447 46.584C187.301 46.5244 187.152 46.4741 187 46.4336L186.547 46.3015C186.245 46.2164 185.943 46.1239 185.639 46.0456L184.711 45.8686C184.401 45.8155 184.092 45.7379 183.78 45.7113C182.539 45.5539 181.286 45.5029 180.036 45.5588C177.539 45.6862 175.077 46.194 172.733 47.0647C171.558 47.4993 170.418 48.0251 169.325 48.6372C168.228 49.2588 167.186 49.9744 166.213 50.7761C165.23 51.5828 164.33 52.4842 163.524 53.4671C161.907 55.4592 160.728 57.7698 160.064 60.2481C159.749 61.4821 159.546 62.7417 159.455 64.012L159.378 65.8541C159.368 66.4709 159.388 67.0937 159.395 67.7139C159.423 68.3368 159.489 68.9644 159.536 69.5901C159.579 69.9039 159.633 70.2177 159.681 70.5322L159.757 71.0033C159.778 71.1618 159.809 71.3188 159.852 71.473C160.018 72.0973 160.133 72.729 160.379 73.3383C160.492 73.6432 160.593 73.9509 160.72 74.2546L161.15 75.1395C161.225 75.2852 161.287 75.4377 161.374 75.5773L161.634 75.9946C161.812 76.2669 161.975 76.5548 162.168 76.8203L162.772 77.5902C162.875 77.7148 162.968 77.8517 163.082 77.9667L163.415 78.3166C165.193 80.2016 167.304 81.5842 169.424 82.7803L171.027 83.6517L172.643 84.4733C173.765 85.0361 174.932 85.5043 176.132 85.873C178.536 86.6095 181.085 86.9131 183.596 86.6899C186.11 86.479 188.55 85.729 190.748 84.491C191.838 83.8834 192.855 83.1524 193.778 82.3126C194.695 81.4848 195.52 80.5597 196.237 79.5535C196.952 78.5638 197.561 77.5024 198.057 76.3867C198.541 75.2833 198.925 74.1387 199.205 72.9666C198.718 74.0498 198.161 75.1 197.537 76.1103C196.924 77.1164 196.198 78.0395 195.431 78.9068C194.658 79.7617 193.807 80.544 192.891 81.2438C191.981 81.93 191.003 82.5229 189.974 83.0138C185.872 84.9669 181.073 85.2031 176.791 83.7817C175.718 83.4274 174.676 82.9843 173.676 82.4569L172.119 81.6257L170.596 80.7585C168.594 79.5767 166.706 78.2533 165.218 76.6488C163.697 75.0653 162.79 73.0912 162.315 70.9475C162.279 70.8135 162.252 70.6769 162.235 70.539L162.172 70.1306L162.046 69.3062C162.008 68.7432 161.95 68.185 161.926 67.6179C161.926 67.0461 161.904 66.4777 161.909 65.9038L161.978 64.1733C162.052 63.0649 162.225 61.9653 162.493 60.8873C162.771 59.8179 163.159 58.7799 163.65 57.7899C164.62 55.8035 166.047 54.0512 167.742 52.593C168.596 51.8613 169.512 51.2051 170.479 50.6318C171.457 50.0593 172.478 49.5643 173.533 49.1512C175.653 48.3157 177.889 47.8082 180.162 47.646C182.433 47.4785 184.717 47.6569 186.869 48.3383C189.033 48.9959 191.052 50.1219 192.85 51.5474C194.655 53.004 196.193 54.7628 197.397 56.7456C198.638 58.76 199.552 60.9584 200.105 63.2591" fill="#262F6A"/>
<path d="M127.185 47.9957C129.611 36.1676 111.552 13.7886 93.9549 15.6409C90.1515 16.0412 89.1583 18.8738 91.1727 21.6213C67.9897 23.8338 62.4987 49.1918 66.4716 58.4772C69.0755 64.5632 72.563 63.3106 73.868 62.3507C75.256 67.0166 83.9152 75.7227 94.5546 74.7241C94.5546 74.7241 125.768 54.8992 127.185 47.9957Z" fill="#B5CEDC"/>
<path d="M127.185 47.9957C129.611 36.1676 111.552 13.7886 93.9549 15.6409C90.1515 16.0412 89.1583 18.8738 91.1727 21.6213C67.9897 23.8338 62.4987 49.1918 66.4716 58.4772C69.0755 64.5632 72.563 63.3106 73.868 62.3507C75.256 67.0166 83.9152 75.7227 94.5546 74.7241C94.5546 74.7241 125.768 54.8992 127.185 47.9957Z" fill="#B5CEDC"/>
<g opacity="0.7">
<path d="M126.505 40.3803C121.903 29.2337 109.726 17.1524 96.9725 17.6657C93.9847 17.7855 92.6157 19.5037 93.0357 21.6188C93.2256 22.5718 92.5966 23.4997 91.6286 23.593C70.0882 25.7387 63.5183 49.4153 66.775 58.636C67.0433 59.418 67.3852 60.1727 67.7961 60.89C67.27 60.1346 66.8266 59.3248 66.4734 58.4747C62.4999 49.1886 67.9915 23.8312 91.1745 21.6181C89.1588 18.8706 90.1534 16.04 93.9561 15.6377C108.221 14.1401 122.791 28.5618 126.506 40.3776" fill="white"/>
</g>
<path d="M89.6559 71.8584C82.5081 70.3941 77.2132 64.4075 76.3813 61.6083L75.318 58.0343L72.3124 60.2454C72.26 60.2842 71.7869 60.6198 71.3036 60.5211C71.019 60.4626 70.0033 60.0691 68.8835 57.4509C68.1939 55.8396 67.7943 53.3596 67.9304 50.3847C67.9808 48.6209 68.1633 44.4356 74.7087 48.9551C81.0043 53.2983 88.5184 53.5441 97.3655 52.6162C105.161 51.7993 113.82 50.8905 121.645 51.3514C115.723 57.2862 102.743 66.3899 93.6996 72.1681C92.3439 72.239 90.9848 72.136 89.6553 71.8618" fill="#92B3C1"/>
<path d="M92.8635 76.1123C83.3071 76.1123 75.6133 69.0604 73.1898 64.163C72.2321 64.5117 71.1903 64.5568 70.2061 64.2924C68.1992 63.7478 66.5375 61.9615 65.2665 58.992C63.0139 53.7257 63.4762 43.3123 68.7704 34.3863C72.0121 28.9205 78.1382 22.243 89.1337 20.5561C88.73 19.3839 88.743 18.2171 89.1963 17.1925C89.9036 15.5921 91.5442 14.5784 93.8152 14.3395C102.298 13.4477 111.918 17.9359 119.542 26.3486C126.188 33.681 129.689 42.2782 128.463 48.2586C128.219 49.4486 127.476 53.0695 111.104 65.0051C103.182 70.782 95.3292 75.778 95.2509 75.8291C95.0764 75.9399 94.8781 76.0078 94.6723 76.0272C94.0646 76.0844 93.4617 76.1127 92.8635 76.1123ZM73.8706 61.0425C74.1522 61.0427 74.4263 61.1338 74.652 61.3024C74.8777 61.4709 75.0429 61.7078 75.1232 61.9778C76.2593 65.7955 84.0601 74.2028 94.1257 73.4478C106.031 65.8629 124.964 52.3295 125.906 47.7324C126.954 42.6268 123.619 34.7382 117.609 28.1063C110.543 20.3097 101.753 16.1367 94.0937 16.942C92.7934 17.0782 91.9057 17.5431 91.5926 18.2504C91.2896 18.9359 91.5245 19.8842 92.2291 20.8468C92.3658 21.0333 92.4506 21.2526 92.475 21.4825C92.4995 21.7124 92.4626 21.9447 92.3681 22.1557C92.2736 22.3667 92.1249 22.5489 91.9372 22.6838C91.7494 22.8188 91.5293 22.9015 91.2992 22.9238C80.1866 23.9837 74.1401 30.4685 71.0243 35.7219C66.3462 43.6084 65.6464 53.2227 67.6757 57.9621C68.6036 60.1296 69.718 61.4455 70.8984 61.7675C71.9522 62.0554 72.8467 61.4802 73.0952 61.2971C73.3193 61.132 73.5902 61.0428 73.8685 61.0425H73.8706Z" fill="#262F6A"/>
<path d="M116.497 55.0213C112.852 65.2673 108.092 67.2578 97.2312 67.9678C85.3181 68.7466 75.1408 59.2542 78.034 45.13C80.2192 34.4769 91.5374 26.9539 102.003 29.9397C111.225 32.5721 120.785 42.9529 116.492 55.0213" fill="#F19294"/>
<path d="M116.497 55.0217C112.851 65.267 108.092 67.2575 97.2313 67.9682C87.02 68.6361 78.0906 61.7598 77.5644 50.8943C79.4221 53.296 85.5435 60.5331 89.7144 57.5133C94.3531 54.1544 90.2856 48.9542 92.9187 45.9248C95.5342 42.9139 104.836 50.1223 104.317 30.759C112.73 34.3187 120.429 43.9656 116.496 55.0217" fill="#EE7B7E"/>
<path d="M80.6032 38.7845C82.017 36.8866 83.7228 35.2249 85.6571 33.8613C87.5632 32.5107 89.6735 31.4787 91.8921 30.866C94.1107 30.2533 96.4062 30.0198 98.6547 30.2663C100.901 30.4861 103.071 31.2193 105.093 32.2663C107.119 33.309 108.975 34.6547 110.596 36.2569C111.403 37.0512 112.146 37.9075 112.819 38.8179C113.483 39.7251 114.067 40.6883 114.564 41.6968C115.548 43.7036 116.169 45.8759 116.279 48.0829C116.34 49.1861 116.288 50.2927 116.123 51.3852C115.945 52.4819 115.67 53.5608 115.302 54.6093L114.682 56.2254C114.46 56.7557 114.218 57.2703 113.991 57.7952C113.746 58.3071 113.473 58.7972 113.216 59.3003L112.776 60.0083L112.556 60.3623C112.487 60.4816 112.409 60.5954 112.322 60.7027C111.042 62.4869 109.43 63.9458 107.408 64.8035C105.41 65.6946 103.154 66.1691 100.848 66.468L99.1067 66.6667L97.3483 66.8192C96.2212 66.9113 95.0884 66.909 93.9616 66.8124C89.4686 66.436 85.1465 64.3324 82.1444 60.9246C81.392 60.0679 80.7275 59.1379 80.1607 58.1485C79.5939 57.1448 79.1202 56.0914 78.7454 55.0014C78.3826 53.9026 78.0769 52.7678 77.9108 51.6024C77.735 50.4281 77.6363 49.2435 77.6154 48.0563C77.411 49.2438 77.3134 50.4472 77.324 51.6521C77.3399 52.8726 77.4827 54.0882 77.7502 55.2791C78.0127 56.4881 78.407 57.6646 78.9258 58.7877C79.443 59.9244 80.0889 60.998 80.851 61.9873C82.3855 63.9894 84.333 65.6379 86.5611 66.8206C88.7811 68.016 91.244 68.7389 93.7438 69.0072C94.9921 69.1396 96.2492 69.1678 97.5022 69.0916L99.3116 68.9711L101.129 68.8009C103.549 68.5334 106.03 68.0929 108.413 67.0589L108.858 66.8682C109.008 66.807 109.146 66.7178 109.291 66.6436L110.149 66.1739C110.428 66.0051 110.694 65.8076 110.966 65.6245L111.37 65.3434C111.506 65.2481 111.622 65.133 111.748 65.0289L112.492 64.3842C112.725 64.1561 112.94 63.9111 113.164 63.6742C113.631 63.2119 113.985 62.6762 114.383 62.1677C114.483 62.0422 114.574 61.9103 114.656 61.7728L114.91 61.3691C115.079 61.0968 115.251 60.8313 115.415 60.5604C115.704 60.0042 116.013 59.4521 116.283 58.8905C116.534 58.3234 116.798 57.7591 117.032 57.1886L117.686 55.465C118.104 54.262 118.413 53.0239 118.609 51.7658C118.974 49.2265 118.8 46.6389 118.098 44.1713C117.744 42.951 117.271 41.7683 116.686 40.6402C116.107 39.5203 115.431 38.4529 114.667 37.4502C113.902 36.4575 113.062 35.5261 112.152 34.6646C110.34 32.9389 108.274 31.5009 106.027 30.4004C104.899 29.8573 103.727 29.4116 102.523 29.0681C102.227 28.9701 101.911 28.9204 101.606 28.8469L100.683 28.6427C100.372 28.5943 100.058 28.561 99.7466 28.5201L99.2783 28.4636C99.1228 28.4415 98.9662 28.4292 98.8092 28.4269C96.3102 28.2893 93.8088 28.652 91.4517 29.4936C91.306 29.5453 91.1569 29.5862 91.0146 29.6468L90.5871 29.8272L89.7362 30.1893C89.4543 30.3139 89.1861 30.4678 88.9118 30.606C88.6374 30.7441 88.3672 30.8844 88.1017 31.045C87.0554 31.687 86.039 32.3732 85.1241 33.1799C83.286 34.7749 81.7251 36.6721 80.6025 38.7845" fill="#262F6A"/>
<path d="M177.94 89.3783C183.431 55.6681 170.489 39.343 144.118 32.7499H144.113H144.105C117.263 28.4435 98.9401 38.3655 90.7119 71.5126C81.1487 94.4049 101.685 106.999 127.775 112.343C153.865 117.687 177.718 114.181 177.94 89.3783Z" fill="#B5CEDC"/>
<path d="M177.94 89.3783C183.431 55.6681 170.489 39.343 144.118 32.7499H144.113H144.105C117.263 28.4435 98.9401 38.3655 90.7119 71.5126C81.1487 94.4049 101.685 106.999 127.775 112.343C153.865 117.687 177.718 114.181 177.94 89.3783Z" fill="#B5CEDC"/>
<path d="M127.713 112.481C130.538 113.06 133.401 113.397 136.148 113.752C156.941 116.443 174.672 112.274 177.538 94.3794C172.938 112.417 151.494 114.67 128.274 109.912C105.053 105.154 86.2337 94.6558 89.1119 76.2666C84.6489 94.0485 99.6929 104.895 120.228 110.542C122.674 111.214 125.135 111.951 127.713 112.479" fill="#92B3C1"/>
<path d="M134.159 81.0484C125.225 78 119.515 81.7734 118.883 88.0023C118.167 95.0719 123.636 100.261 129.98 101.544C136.318 102.843 143.384 100.207 145.493 93.4218C147.352 87.4434 143.576 81.7373 134.161 81.0484" fill="#F9FCFF"/>
<path d="M146.912 115.799C143.498 115.799 139.854 115.549 135.98 115.05L135.948 115.045C135.676 115.004 129.239 114.008 127.507 113.656C125.775 113.303 120.144 111.873 119.905 111.812C104.038 107.449 93.4239 100.544 89.1821 91.8376C86.2018 85.7163 86.2971 78.7399 89.466 71.1005C93.5737 54.6073 100.191 43.4525 109.693 37.0023C118.591 30.962 129.914 29.1471 144.311 31.4556L144.379 31.4678L144.436 31.4808C158.58 35.0207 168.276 41.1379 174.079 50.1899C180.274 59.8565 181.965 72.7119 179.248 89.4903C179.153 97.7234 176.515 104.154 171.405 108.608C165.945 113.366 157.587 115.799 146.912 115.799ZM136.332 112.456C151.529 114.42 163.063 112.406 169.689 106.634C174.23 102.675 176.564 96.8656 176.632 89.3658C176.633 89.2992 176.639 89.2328 176.649 89.167C181.726 57.996 171.612 40.9902 143.849 34.0309C115.966 29.5753 99.4846 41.5872 91.9807 71.8276C91.965 71.8922 91.944 71.9555 91.9181 72.0168C89.0147 78.9673 88.8853 85.2499 91.5341 90.6905C95.4349 98.7016 105.477 105.13 120.575 109.281C120.608 109.289 126.361 110.75 128.029 111.091C129.66 111.423 135.973 112.4 136.332 112.456Z" fill="#262F6A"/>
<path d="M132.692 88.408C142.405 90.3979 144.156 82.9321 144.465 77.9183C144.978 69.6268 139.991 65.1923 137.557 64.694C135.123 64.1957 128.79 66.3108 125.997 74.1354C124.307 78.8666 122.977 86.4189 132.692 88.408Z" fill="#262F6A"/>
<g opacity="0.7">
<path d="M140.449 71.6035C142.341 72.7002 142.1 77.7166 141.096 80.0877C140.055 82.5438 139.038 83.8107 137.903 83.213C136.317 82.3791 136.557 80.1592 137.421 77.8351C138.034 76.1897 138.113 70.2535 140.449 71.6062" fill="white"/>
</g>
<path d="M167.368 44.2198C157.245 34.7887 145.091 34.5089 145.346 24.0015C145.346 24.0015 140.084 26.3936 140.172 31.0752C138.99 29.7885 137.517 27.5352 130.606 27.3841C124.507 27.2534 121.785 24.5536 121.785 24.5536C121.785 24.5536 120.247 31.8982 128.406 34.9486" fill="#B5CEDC"/>
<path d="M168.081 43.4535C166.118 41.6223 163.954 40.0266 161.709 38.61C159.464 37.1933 157.135 35.955 154.876 34.6943C153.748 34.0632 152.638 33.4233 151.593 32.7276C150.547 32.0319 149.571 31.2749 148.753 30.413C147.934 29.5512 147.296 28.575 146.905 27.4899C146.514 26.4048 146.36 25.2325 146.391 24.0296V24.0221C146.398 23.7463 146.295 23.4791 146.105 23.2792C145.915 23.0793 145.653 22.963 145.377 22.9561C145.217 22.9525 145.058 22.9855 144.912 23.0527C144.782 23.1133 144.701 23.1555 144.601 23.208L144.32 23.3604C144.135 23.4632 143.956 23.5722 143.778 23.6831C143.423 23.9073 143.08 24.1474 142.749 24.4034C142.073 24.9213 141.458 25.5152 140.918 26.1733C140.356 26.855 139.908 27.6225 139.589 28.4463C139.267 29.2937 139.109 30.1948 139.124 31.1013L140.942 30.3688C140.687 30.0897 140.398 29.7452 140.07 29.4157C139.736 29.0763 139.376 28.765 138.991 28.4851C138.224 27.9377 137.378 27.5097 136.482 27.2155C134.739 26.6315 132.978 26.4374 131.248 26.3592L130.006 26.3156C129.611 26.2924 129.215 26.2632 128.824 26.2142C128.043 26.124 127.269 25.9761 126.51 25.7717C125.764 25.5692 125.036 25.3004 124.337 24.9684C123.996 24.8054 123.665 24.6236 123.344 24.4238C123.186 24.3237 123.033 24.2196 122.887 24.1134C122.815 24.0603 122.744 24.0058 122.678 23.952L122.582 23.8724L122.514 23.8152L120.758 24.3421C120.726 24.4578 120.709 24.5245 120.69 24.6103C120.671 24.6961 120.653 24.7703 120.64 24.8492C120.612 25.0079 120.584 25.1638 120.572 25.3203C120.535 25.6321 120.519 25.9459 120.523 26.2598C120.523 26.5729 120.542 26.8858 120.581 27.1965C120.617 27.508 120.67 27.8174 120.74 28.123C120.883 28.7361 121.092 29.3315 121.366 29.8984C121.641 30.4597 121.973 30.9911 122.358 31.4839C122.735 31.971 123.164 32.4153 123.638 32.8086C124.098 33.1972 124.596 33.5377 125.124 33.825C126.147 34.3818 127.257 34.7618 128.406 34.9489C127.438 34.3451 126.534 33.6943 125.762 32.9481C125.557 32.7725 125.387 32.5676 125.203 32.3797L124.951 32.0782C124.864 31.9801 124.783 31.8794 124.706 31.7739C124.395 31.3696 124.122 30.9378 123.89 30.4838C123.418 29.5934 123.155 28.6322 122.988 27.6655C122.947 27.4232 122.914 27.1788 122.884 26.9344C122.854 26.69 122.841 26.4429 122.827 26.1958C122.813 25.9487 122.806 25.7022 122.806 25.4572V24.7682L121.045 25.2951C121.124 25.3721 121.159 25.4013 121.213 25.4483L121.359 25.5702C121.455 25.6484 121.55 25.7206 121.646 25.7914C121.838 25.933 122.031 26.0637 122.227 26.1876C122.616 26.4306 123.017 26.6519 123.43 26.8507C124.243 27.2375 125.09 27.5507 125.959 27.7867C126.818 28.0181 127.692 28.186 128.575 28.2891C129.014 28.3435 129.453 28.3762 129.893 28.4021C130.113 28.415 130.332 28.4191 130.552 28.4273L131.161 28.447C132.768 28.5151 134.369 28.7084 135.805 29.1958C136.502 29.4223 137.162 29.7535 137.76 30.1782C138.051 30.391 138.325 30.6278 138.577 30.8862C138.84 31.151 139.089 31.4457 139.397 31.7847C139.539 31.941 139.725 32.0506 139.93 32.0992C140.135 32.1478 140.35 32.133 140.547 32.0569C140.744 31.9808 140.913 31.8468 141.032 31.6727C141.151 31.4986 141.215 31.2925 141.215 31.0815V31.0597C141.206 30.4207 141.318 29.7857 141.545 29.1884C141.784 28.5729 142.121 28 142.542 27.4912C142.982 26.9582 143.481 26.4772 144.03 26.0576C144.307 25.8431 144.596 25.641 144.893 25.4531C145.043 25.3605 145.193 25.2686 145.345 25.1842L145.571 25.0603C145.64 25.0235 145.732 24.9786 145.776 24.9568L144.296 23.9806C144.26 25.3789 144.438 26.8323 144.935 28.2047C145.185 28.8888 145.508 29.5439 145.9 30.1584C146.288 30.7618 146.733 31.3277 147.226 31.8487C148.203 32.878 149.305 33.7222 150.426 34.4696C151.547 35.2171 152.702 35.8808 153.849 36.5221C156.144 37.7999 158.423 39.0102 160.588 40.3806C162.753 41.7509 164.8 43.2595 166.651 44.9859C166.854 45.1755 167.123 45.2768 167.4 45.2676C167.678 45.2584 167.94 45.1394 168.13 44.9369C168.319 44.7343 168.42 44.4647 168.411 44.1874C168.402 43.9101 168.283 43.6479 168.081 43.4583V43.4535Z" fill="#262F6A"/>
<path d="M143.301 34.4579C142.741 33.8956 142.231 33.3006 141.863 32.6532C141.496 32.0058 141.266 31.3291 140.995 30.5735L139.346 31.5776C139.88 32.1481 140.467 32.8029 141.151 33.3047C141.835 33.8064 142.566 34.1631 143.301 34.4579Z" fill="#262F6A"/>
<path d="M123.748 71.2348C122.608 76.8422 117.744 80.5877 112.884 79.6006C108.024 78.6135 105.009 73.2696 106.15 67.6615C107.291 62.0535 112.155 58.3087 117.014 59.2951C121.873 60.2815 124.888 65.6261 123.748 71.2348Z" fill="#262F6A"/>
<path d="M120.807 67.5809C120.399 69.5851 118.785 70.9486 117.199 70.6273C115.614 70.306 114.661 68.4196 115.068 66.4162C115.475 64.4127 117.091 63.0478 118.676 63.3698C120.262 63.6918 121.215 65.5768 120.807 67.5809Z" fill="white"/>
<g opacity="0.2">
<path d="M112.559 72.5225C112.287 73.8793 111.349 74.8371 110.471 74.656C109.594 74.4749 109.106 73.2339 109.382 71.8779C109.658 70.5218 110.592 69.5633 111.47 69.7444C112.347 69.9255 112.836 71.1665 112.559 72.5225Z" fill="white"/>
</g>
<path d="M125.59 87.1514C125.156 86.7647 124.604 86.6129 124.048 86.6013C123.466 86.6 122.898 86.778 122.421 87.1112C121.939 87.4516 121.549 87.9376 121.383 88.4802C121.275 88.7423 121.261 89.0289 121.243 89.2971C121.242 89.4363 121.257 89.5751 121.288 89.711C121.311 89.8487 121.348 89.9838 121.397 90.1147C121.596 89.9447 121.786 89.7629 121.964 89.5701C122.15 89.4122 122.276 89.2372 122.444 89.1092C122.714 88.8482 123.006 88.61 123.316 88.3971C123.629 88.1773 123.957 87.979 124.297 87.8035C124.671 87.6075 125.082 87.4101 125.59 87.15" fill="#262F6A"/>
<path d="M139.654 90.0159C140.019 90.4536 140.32 90.796 140.588 91.1228C140.832 91.4172 141.055 91.7279 141.257 92.0527C141.459 92.3696 141.635 92.7027 141.782 93.0486C141.886 93.2324 141.933 93.4428 142.042 93.6613C142.131 93.9084 142.234 94.15 142.351 94.3849C142.447 94.2831 142.533 94.1728 142.609 94.0554C142.691 93.9423 142.759 93.8206 142.814 93.6926C142.902 93.4366 143.002 93.1677 143.005 92.8845C143.065 92.3202 142.897 91.7177 142.586 91.2187C142.278 90.7255 141.825 90.3396 141.289 90.1139C140.772 89.9063 140.204 89.83 139.655 90.0165" fill="#262F6A"/>
<path d="M133.863 95.9521C132.952 95.9496 132.045 95.8556 131.153 95.6716C124.015 94.2175 122.216 88.3951 122.143 88.148L123.709 87.6816C123.772 87.8906 125.331 92.8166 131.479 94.0685C137.626 95.3204 140.991 91.3972 141.132 91.229L142.39 92.2726C142.248 92.4449 139.281 95.9521 133.863 95.9521Z" fill="#262F6A"/>
<path d="M70.5894 103.43C73.857 109.775 87.9982 122.525 106.699 127.425L107.421 126.981L128.868 113.745C103.673 106.673 93.6682 98.4096 86.7218 93.5831C80.2744 89.101 74.2484 88.8682 70.8351 92.9296C70.3428 93.5255 69.957 94.2018 69.6949 94.929C68.8923 97.0849 68.8684 100.085 70.5894 103.43Z" fill="#B5CEDC"/>
<path d="M70.5894 103.43C73.857 109.775 87.9982 122.525 106.699 127.425C107.123 127.303 107.358 127.153 107.421 126.981C108.318 124.517 75.0388 116.702 69.6949 94.929C68.8923 97.0849 68.8684 100.085 70.5894 103.43Z" fill="#92B3C1"/>
<path d="M128.867 113.745C119.405 110.508 110.078 106.884 101.455 102.006C99.298 100.792 97.1952 99.4913 95.1325 98.1257C93.0698 96.7601 91.0609 95.3156 89.0371 93.8445L87.5067 92.7444C86.9853 92.3741 86.4414 92.0024 85.8852 91.662C84.7658 90.9613 83.5856 90.3627 82.3589 89.8737C81.1118 89.3971 79.7993 89.0309 78.4221 88.8913C77.0449 88.7518 75.612 88.8233 74.23 89.2433C72.8376 89.6622 71.5667 90.4108 70.5254 91.4258C70.2672 91.6777 70.0235 91.944 69.7956 92.2236C69.561 92.5159 69.3483 92.8251 69.1591 93.1487C68.7941 93.7802 68.5096 94.4548 68.3123 95.157C67.9336 96.5244 67.8347 97.9541 68.0216 99.3606C68.1911 100.745 68.6091 102.069 69.1727 103.3C69.2408 103.455 69.315 103.607 69.3913 103.758C69.4675 103.908 69.5431 104.06 69.6288 104.209L69.8773 104.656L70.1428 105.083C70.4975 105.652 70.8814 106.184 71.2742 106.708C72.0643 107.731 72.9119 108.708 73.8127 109.635C75.5874 111.467 77.484 113.177 79.4895 114.753C81.4744 116.333 83.5507 117.794 85.7075 119.13C87.8492 120.482 90.0868 121.674 92.3673 122.762C94.6513 123.838 96.998 124.776 99.3947 125.57C101.781 126.366 104.222 126.986 106.699 127.426C104.336 126.584 102.016 125.674 99.7473 124.658C97.4791 123.642 95.2605 122.537 93.1012 121.331C88.7785 118.953 84.683 116.183 80.866 113.057C78.9735 111.505 77.1879 109.826 75.5214 108.033C74.7015 107.148 73.9276 106.221 73.2028 105.257C72.8495 104.78 72.5064 104.294 72.2041 103.8L71.9774 103.43L71.7732 103.058C71.7038 102.935 71.6384 102.809 71.5772 102.679C71.5159 102.548 71.4548 102.419 71.394 102.29C70.925 101.25 70.5928 100.16 70.4662 99.0624C70.3268 97.985 70.4062 96.8905 70.6997 95.8445C70.844 95.3445 71.0498 94.8643 71.3123 94.4149C71.4402 94.2007 71.5833 93.996 71.7405 93.8023C71.9032 93.6096 72.0911 93.404 72.2783 93.2209C73.0267 92.4758 73.9444 91.9232 74.953 91.6103C75.9639 91.2937 77.0681 91.2134 78.1798 91.3182C79.2914 91.423 80.4133 91.7164 81.5032 92.1201C82.6075 92.5352 83.6729 93.0471 84.6871 93.6498C85.2038 93.95 85.7 94.2713 86.2045 94.6144L87.7362 95.675C89.7784 97.1046 91.8533 98.5471 93.9834 99.9004C96.1135 101.254 98.3082 102.512 100.538 103.692C105.01 106.035 109.66 107.999 114.403 109.656C119.141 111.299 123.971 112.666 128.867 113.75" fill="#262F6A"/>
<path d="M76.8592 96.5013C76.3144 96.1384 75.7297 95.8393 75.1165 95.6102C74.4928 95.3687 73.8478 95.1863 73.1899 95.0656C72.5181 94.9391 71.8361 94.8749 71.1525 94.8736C70.455 94.8714 69.7585 94.9265 69.07 95.0383L69.6718 97.0404C70.2106 96.7911 70.7689 96.5862 71.341 96.4278C72.5292 96.1016 73.767 95.9959 74.9933 96.116C75.6279 96.1709 76.2541 96.2993 76.8592 96.4986" fill="#262F6A"/>
<path d="M79.3486 93.0362C78.8058 92.6128 78.2198 92.2477 77.6005 91.947C76.6406 91.4756 75.6134 91.1561 74.5555 91.0001C74.3744 90.9763 74.192 90.9647 74.0109 90.947L73.7345 90.9238H73.4567C72.7079 90.8952 71.9591 91.0178 71.2055 91.1791L71.9421 93.1363C72.4656 92.8749 73.019 92.6148 73.6194 92.4834L73.8434 92.4242L74.0721 92.3847C74.2253 92.3602 74.3792 92.3282 74.535 92.3085C74.8515 92.273 75.1697 92.2543 75.4881 92.2527C76.8166 92.2476 78.1321 92.5147 79.3534 93.0376" fill="#262F6A"/>
<path d="M165.436 76.1843C159.534 72.7703 153.952 75.2312 149.878 80.0687L148.67 78.2245C153.729 76.9876 158.83 78.3055 162.149 82.4281C160.163 81.2327 158.048 80.2497 155.779 79.9305C153.591 79.6044 151.391 79.893 149.231 80.4914C148.936 80.5729 148.62 80.5339 148.353 80.383C148.087 80.232 147.891 79.9813 147.808 79.6861C147.76 79.5082 147.754 79.3214 147.791 79.1408C147.829 78.9603 147.908 78.7912 148.024 78.6472C149.018 77.2571 150.264 76.089 151.659 75.1216C156.007 72.0412 161.831 71.9098 165.434 76.1843H165.436Z" fill="#262F6A"/>
</svg>
